<svg width="170" height="260" viewBox="0 0 170 260" fill="none" xmlns="http://www.w3.org/2000/svg">
<rect width="170" height="260" rx="15" fill="white"/>
<rect x="10" y="12" width="150" height="236" rx="7" fill="#F3F2EE"/>
<path d="M138.836 33C138.689 33 138.563 32.9533 138.456 32.86C138.363 32.7667 138.316 32.6467 138.316 32.5V31.08C138.316 30.9867 138.343 30.8467 138.396 30.66C138.449 30.46 138.589 30.2733 138.816 30.1L140.896 28.06C141.963 27.2467 142.836 26.56 143.516 26C144.209 25.4267 144.723 24.92 145.056 24.48C145.389 24.04 145.556 23.6267 145.556 23.24C145.556 22.7867 145.436 22.4133 145.196 22.12C144.969 21.8133 144.569 21.66 143.996 21.66C143.609 21.66 143.283 21.7467 143.016 21.92C142.763 22.08 142.569 22.2933 142.436 22.56C142.303 22.8267 142.209 23.1 142.156 23.38C142.103 23.5533 142.009 23.6733 141.876 23.74C141.756 23.8067 141.623 23.84 141.476 23.84H138.976C138.856 23.84 138.756 23.8 138.676 23.72C138.596 23.64 138.556 23.54 138.556 23.42C138.569 22.78 138.703 22.18 138.956 21.62C139.223 21.06 139.589 20.5667 140.056 20.14C140.536 19.7 141.103 19.36 141.756 19.12C142.423 18.88 143.169 18.76 143.996 18.76C145.129 18.76 146.089 18.94 146.876 19.3C147.676 19.66 148.283 20.1667 148.696 20.82C149.109 21.46 149.316 22.2133 149.316 23.08C149.316 23.7333 149.169 24.3467 148.876 24.92C148.596 25.48 148.189 26.02 147.656 26.54C147.136 27.0467 146.516 27.5733 145.796 28.12L143.956 29.98H149.096C149.243 29.98 149.363 30.0267 149.456 30.12C149.563 30.2133 149.616 30.3333 149.616 30.48V32.5C149.616 32.6467 149.563 32.7667 149.456 32.86C149.363 32.9533 149.243 33 149.096 33H138.836Z" fill="#E02323"/>
<path d="M20.8361 33C20.6894 33 20.5628 32.9533 20.4561 32.86C20.3628 32.7667 20.3161 32.6467 20.3161 32.5V31.08C20.3161 30.9867 20.3428 30.8467 20.3961 30.66C20.4494 30.46 20.5894 30.2733 20.8161 30.1L22.8961 28.06C23.9628 27.2467 24.8361 26.56 25.5161 26C26.2094 25.4267 26.7228 24.92 27.0561 24.48C27.3894 24.04 27.5561 23.6267 27.5561 23.24C27.5561 22.7867 27.4361 22.4133 27.1961 22.12C26.9694 21.8133 26.5694 21.66 25.9961 21.66C25.6094 21.66 25.2828 21.7467 25.0161 21.92C24.7628 22.08 24.5694 22.2933 24.4361 22.56C24.3028 22.8267 24.2094 23.1 24.1561 23.38C24.1028 23.5533 24.0094 23.6733 23.8761 23.74C23.7561 23.8067 23.6228 23.84 23.4761 23.84H20.9761C20.8561 23.84 20.7561 23.8 20.6761 23.72C20.5961 23.64 20.5561 23.54 20.5561 23.42C20.5694 22.78 20.7028 22.18 20.9561 21.62C21.2228 21.06 21.5894 20.5667 22.0561 20.14C22.5361 19.7 23.1028 19.36 23.7561 19.12C24.4228 18.88 25.1694 18.76 25.9961 18.76C27.1294 18.76 28.0894 18.94 28.8761 19.3C29.6761 19.66 30.2828 20.1667 30.6961 20.82C31.1094 21.46 31.3161 22.2133 31.3161 23.08C31.3161 23.7333 31.1694 24.3467 30.8761 24.92C30.5961 25.48 30.1894 26.02 29.6561 26.54C29.1361 27.0467 28.5161 27.5733 27.7961 28.12L25.9561 29.98H31.0961C31.2428 29.98 31.3628 30.0267 31.4561 30.12C31.5628 30.2133 31.6161 30.3333 31.6161 30.48V32.5C31.6161 32.6467 31.5628 32.7667 31.4561 32.86C31.3628 32.9533 31.2428 33 31.0961 33H20.8361Z" fill="#E02323"/>
<path d="M138.836 239C138.689 239 138.563 238.953 138.456 238.86C138.363 238.767 138.316 238.647 138.316 238.5V237.08C138.316 236.987 138.343 236.847 138.396 236.66C138.449 236.46 138.589 236.273 138.816 236.1L140.896 234.06C141.963 233.247 142.836 232.56 143.516 232C144.209 231.427 144.723 230.92 145.056 230.48C145.389 230.04 145.556 229.627 145.556 229.24C145.556 228.787 145.436 228.413 145.196 228.12C144.969 227.813 144.569 227.66 143.996 227.66C143.609 227.66 143.283 227.747 143.016 227.92C142.763 228.08 142.569 228.293 142.436 228.56C142.303 228.827 142.209 229.1 142.156 229.38C142.103 229.553 142.009 229.673 141.876 229.74C141.756 229.807 141.623 229.84 141.476 229.84H138.976C138.856 229.84 138.756 229.8 138.676 229.72C138.596 229.64 138.556 229.54 138.556 229.42C138.569 228.78 138.703 228.18 138.956 227.62C139.223 227.06 139.589 226.567 140.056 226.14C140.536 225.7 141.103 225.36 141.756 225.12C142.423 224.88 143.169 224.76 143.996 224.76C145.129 224.76 146.089 224.94 146.876 225.3C147.676 225.66 148.283 226.167 148.696 226.82C149.109 227.46 149.316 228.213 149.316 229.08C149.316 229.733 149.169 230.347 148.876 230.92C148.596 231.48 148.189 232.02 147.656 232.54C147.136 233.047 146.516 233.573 145.796 234.12L143.956 235.98H149.096C149.243 235.98 149.363 236.027 149.456 236.12C149.563 236.213 149.616 236.333 149.616 236.48V238.5C149.616 238.647 149.563 238.767 149.456 238.86C149.363 238.953 149.243 239 149.096 239H138.836Z" fill="#E02323"/>
<path d="M20.8361 239C20.6894 239 20.5628 238.953 20.4561 238.86C20.3628 238.767 20.3161 238.647 20.3161 238.5V237.08C20.3161 236.987 20.3428 236.847 20.3961 236.66C20.4494 236.46 20.5894 236.273 20.8161 236.1L22.8961 234.06C23.9628 233.247 24.8361 232.56 25.5161 232C26.2094 231.427 26.7228 230.92 27.0561 230.48C27.3894 230.04 27.5561 229.627 27.5561 229.24C27.5561 228.787 27.4361 228.413 27.1961 228.12C26.9694 227.813 26.5694 227.66 25.9961 227.66C25.6094 227.66 25.2828 227.747 25.0161 227.92C24.7628 228.08 24.5694 228.293 24.4361 228.56C24.3028 228.827 24.2094 229.1 24.1561 229.38C24.1028 229.553 24.0094 229.673 23.8761 229.74C23.7561 229.807 23.6228 229.84 23.4761 229.84H20.9761C20.8561 229.84 20.7561 229.8 20.6761 229.72C20.5961 229.64 20.5561 229.54 20.5561 229.42C20.5694 228.78 20.7028 228.18 20.9561 227.62C21.2228 227.06 21.5894 226.567 22.0561 226.14C22.5361 225.7 23.1028 225.36 23.7561 225.12C24.4228 224.88 25.1694 224.76 25.9961 224.76C27.1294 224.76 28.0894 224.94 28.8761 225.3C29.6761 225.66 30.2828 226.167 30.6961 226.82C31.1094 227.46 31.3161 228.213 31.3161 229.08C31.3161 229.733 31.1694 230.347 30.8761 230.92C30.5961 231.48 30.1894 232.02 29.6561 232.54C29.1361 233.047 28.5161 233.573 27.7961 234.12L25.9561 235.98H31.0961C31.2428 235.98 31.3628 236.027 31.4561 236.12C31.5628 236.213 31.6161 236.333 31.6161 236.48V238.5C31.6161 238.647 31.5628 238.767 31.4561 238.86C31.3628 238.953 31.2428 239 31.0961 239H20.8361Z" fill="#E02323"/>
<path d="M51.9346 174C50.9813 174 50.1579 173.697 49.4646 173.09C48.8579 172.483 48.5546 171.703 48.5546 170.75V161.52C48.5546 160.913 48.7279 160.003 49.0746 158.79C49.4213 157.49 50.3313 156.277 51.8046 155.15L65.3246 141.89C72.2579 136.603 77.9346 132.14 82.3546 128.5C86.8613 124.773 90.1979 121.48 92.3646 118.62C94.5313 115.76 95.6146 113.073 95.6146 110.56C95.6146 107.613 94.8346 105.187 93.2746 103.28C91.8013 101.287 89.2013 100.29 85.4746 100.29C82.9613 100.29 80.8379 100.853 79.1046 101.98C77.4579 103.02 76.2013 104.407 75.3346 106.14C74.4679 107.873 73.8613 109.65 73.5146 111.47C73.1679 112.597 72.5613 113.377 71.6946 113.81C70.9146 114.243 70.0479 114.46 69.0946 114.46H52.8446C52.0646 114.46 51.4146 114.2 50.8946 113.68C50.3746 113.16 50.1146 112.51 50.1146 111.73C50.2013 107.57 51.0679 103.67 52.7146 100.03C54.4479 96.39 56.8313 93.1833 59.8646 90.41C62.9846 87.55 66.6679 85.34 70.9146 83.78C75.2479 82.22 80.1013 81.44 85.4746 81.44C92.8413 81.44 99.0813 82.61 104.195 84.95C109.395 87.29 113.338 90.5833 116.025 94.83C118.711 98.99 120.055 103.887 120.055 109.52C120.055 113.767 119.101 117.753 117.195 121.48C115.375 125.12 112.731 128.63 109.265 132.01C105.885 135.303 101.855 138.727 97.1746 142.28L85.2146 154.37H118.625C119.578 154.37 120.358 154.673 120.965 155.28C121.658 155.887 122.005 156.667 122.005 157.62V170.75C122.005 171.703 121.658 172.483 120.965 173.09C120.358 173.697 119.578 174 118.625 174H51.9346Z" fill="#E02323"/>
<path d="M57.6502 157.69C57.1369 157.69 56.7169 157.527 56.3902 157.2C56.0636 156.873 55.9002 156.453 55.9002 155.94V143.13H43.4402C42.9269 143.13 42.4836 142.967 42.1102 142.64C41.7836 142.313 41.6202 141.893 41.6202 141.38V136.27C41.6202 135.757 41.7836 135.337 42.1102 135.01C42.4836 134.683 42.9269 134.52 43.4402 134.52H55.9002V122.06C55.9002 121.547 56.0636 121.127 56.3902 120.8C56.7169 120.473 57.1369 120.31 57.6502 120.31H63.3902C63.8569 120.31 64.2536 120.473 64.5802 120.8C64.9536 121.127 65.1402 121.547 65.1402 122.06V134.52H77.5302C78.0436 134.52 78.4636 134.683 78.7902 135.01C79.1169 135.337 79.2802 135.757 79.2802 136.27V141.38C79.2802 141.893 79.1169 142.313 78.7902 142.64C78.4636 142.967 78.0436 143.13 77.5302 143.13H65.1402V155.94C65.1402 156.453 64.9536 156.873 64.5802 157.2C64.2536 157.527 63.8569 157.69 63.3902 157.69H57.6502Z" fill="#1A1A1A"/>
</svg>
