<svg width="170" height="260" viewBox="0 0 170 260" fill="none" xmlns="http://www.w3.org/2000/svg">
<rect width="170" height="260" rx="15" fill="white"/>
<rect x="10" y="12" width="150" height="236" rx="7" fill="#F3F2EE"/>
<path d="M144.569 33C144.436 33 144.316 32.9533 144.209 32.86C144.116 32.7667 144.069 32.6467 144.069 32.5V22.98L141.329 25.08C141.209 25.1733 141.083 25.2067 140.949 25.18C140.829 25.1533 140.723 25.08 140.629 24.96L139.449 23.42C139.369 23.3 139.336 23.1733 139.349 23.04C139.376 22.8933 139.456 22.78 139.589 22.7L144.189 19.14C144.269 19.0867 144.343 19.0533 144.409 19.04C144.489 19.0133 144.576 19 144.669 19H147.169C147.303 19 147.416 19.0467 147.509 19.14C147.616 19.2333 147.669 19.3533 147.669 19.5V32.5C147.669 32.6467 147.616 32.7667 147.509 32.86C147.416 32.9533 147.303 33 147.169 33H144.569Z" fill="#F7D06C"/>
<path d="M26.5693 33C26.436 33 26.316 32.9533 26.2093 32.86C26.116 32.7667 26.0693 32.6467 26.0693 32.5V22.98L23.3293 25.08C23.2093 25.1733 23.0826 25.2067 22.9493 25.18C22.8293 25.1533 22.7226 25.08 22.6293 24.96L21.4493 23.42C21.3693 23.3 21.336 23.1733 21.3493 23.04C21.376 22.8933 21.456 22.78 21.5893 22.7L26.1893 19.14C26.2693 19.0867 26.3426 19.0533 26.4093 19.04C26.4893 19.0133 26.576 19 26.6693 19H29.1693C29.3026 19 29.416 19.0467 29.5093 19.14C29.616 19.2333 29.6693 19.3533 29.6693 19.5V32.5C29.6693 32.6467 29.616 32.7667 29.5093 32.86C29.416 32.9533 29.3026 33 29.1693 33H26.5693Z" fill="#F7D06C"/>
<path d="M144.569 239C144.436 239 144.316 238.953 144.209 238.86C144.116 238.767 144.069 238.647 144.069 238.5V228.98L141.329 231.08C141.209 231.173 141.083 231.207 140.949 231.18C140.829 231.153 140.723 231.08 140.629 230.96L139.449 229.42C139.369 229.3 139.336 229.173 139.349 229.04C139.376 228.893 139.456 228.78 139.589 228.7L144.189 225.14C144.269 225.087 144.343 225.053 144.409 225.04C144.489 225.013 144.576 225 144.669 225H147.169C147.303 225 147.416 225.047 147.509 225.14C147.616 225.233 147.669 225.353 147.669 225.5V238.5C147.669 238.647 147.616 238.767 147.509 238.86C147.416 238.953 147.303 239 147.169 239H144.569Z" fill="#F7D06C"/>
<path d="M26.5693 239C26.436 239 26.316 238.953 26.2093 238.86C26.116 238.767 26.0693 238.647 26.0693 238.5V228.98L23.3293 231.08C23.2093 231.173 23.0826 231.207 22.9493 231.18C22.8293 231.153 22.7226 231.08 22.6293 230.96L21.4493 229.42C21.3693 229.3 21.336 229.173 21.3493 229.04C21.376 228.893 21.456 228.78 21.5893 228.7L26.1893 225.14C26.2693 225.087 26.3426 225.053 26.4093 225.04C26.4893 225.013 26.576 225 26.6693 225H29.1693C29.3026 225 29.416 225.047 29.5093 225.14C29.616 225.233 29.6693 225.353 29.6693 225.5V238.5C29.6693 238.647 29.616 238.767 29.5093 238.86C29.416 238.953 29.3026 239 29.1693 239H26.5693Z" fill="#F7D06C"/>
<path d="M88.7004 174C87.8338 174 87.0538 173.697 86.3604 173.09C85.7538 172.483 85.4504 171.703 85.4504 170.75V108.87L67.6404 122.52C66.8604 123.127 66.0371 123.343 65.1704 123.17C64.3904 122.997 63.6971 122.52 63.0904 121.74L55.4204 111.73C54.9004 110.95 54.6838 110.127 54.7704 109.26C54.9438 108.307 55.4638 107.57 56.3304 107.05L86.2304 83.91C86.7504 83.5633 87.2271 83.3467 87.6604 83.26C88.1804 83.0867 88.7438 83 89.3504 83H105.6C106.467 83 107.204 83.3033 107.81 83.91C108.504 84.5167 108.85 85.2967 108.85 86.25V170.75C108.85 171.703 108.504 172.483 107.81 173.09C107.204 173.697 106.467 174 105.6 174H88.7004Z" fill="#F7D06C"/>
</svg>
