<svg width="170" height="260" viewBox="0 0 170 260" fill="none" xmlns="http://www.w3.org/2000/svg">
<rect width="170" height="260" rx="15" fill="white"/>
<rect x="10" y="12" width="150" height="236" rx="7" fill="#F3F2EE"/>
<path d="M144.086 33.2C142.913 33.2 141.88 32.9867 140.986 32.56C140.093 32.1333 139.393 31.5467 138.886 30.8C138.393 30.04 138.146 29.1733 138.146 28.2C138.146 27.7867 138.206 27.38 138.326 26.98C138.46 26.5667 138.62 26.18 138.806 25.82C138.993 25.4467 139.18 25.12 139.366 24.84C139.553 24.5467 139.706 24.3133 139.826 24.14L143.346 19.4C143.413 19.3333 143.5 19.2533 143.606 19.16C143.713 19.0533 143.866 19 144.066 19H146.726C146.846 19 146.946 19.0467 147.026 19.14C147.106 19.22 147.146 19.32 147.146 19.44C147.146 19.4933 147.14 19.5467 147.126 19.6C147.113 19.64 147.093 19.6733 147.066 19.7L144.366 23.38C144.446 23.3533 144.54 23.34 144.646 23.34C144.766 23.3267 144.873 23.32 144.966 23.32C145.566 23.3467 146.16 23.48 146.746 23.72C147.333 23.96 147.866 24.2867 148.346 24.7C148.826 25.1133 149.206 25.6133 149.486 26.2C149.78 26.7733 149.926 27.42 149.926 28.14C149.926 29.06 149.686 29.9067 149.206 30.68C148.726 31.44 148.046 32.0533 147.166 32.52C146.3 32.9733 145.273 33.2 144.086 33.2ZM144.066 30.32C144.453 30.32 144.813 30.24 145.146 30.08C145.48 29.9067 145.746 29.6667 145.946 29.36C146.16 29.04 146.266 28.6467 146.266 28.18C146.266 27.7133 146.166 27.3267 145.966 27.02C145.766 26.7 145.5 26.46 145.166 26.3C144.833 26.14 144.466 26.06 144.066 26.06C143.666 26.06 143.293 26.14 142.946 26.3C142.613 26.46 142.346 26.7 142.146 27.02C141.946 27.3267 141.846 27.7133 141.846 28.18C141.846 28.6467 141.946 29.04 142.146 29.36C142.36 29.6667 142.633 29.9067 142.966 30.08C143.3 30.24 143.666 30.32 144.066 30.32Z" fill="#E02323"/>
<path d="M26.0863 33.2C24.913 33.2 23.8797 32.9867 22.9863 32.56C22.093 32.1333 21.393 31.5467 20.8863 30.8C20.393 30.04 20.1463 29.1733 20.1463 28.2C20.1463 27.7867 20.2063 27.38 20.3263 26.98C20.4597 26.5667 20.6197 26.18 20.8063 25.82C20.993 25.4467 21.1797 25.12 21.3663 24.84C21.553 24.5467 21.7063 24.3133 21.8263 24.14L25.3463 19.4C25.413 19.3333 25.4997 19.2533 25.6063 19.16C25.713 19.0533 25.8663 19 26.0663 19H28.7263C28.8463 19 28.9463 19.0467 29.0263 19.14C29.1063 19.22 29.1463 19.32 29.1463 19.44C29.1463 19.4933 29.1397 19.5467 29.1263 19.6C29.113 19.64 29.093 19.6733 29.0663 19.7L26.3663 23.38C26.4463 23.3533 26.5397 23.34 26.6463 23.34C26.7663 23.3267 26.873 23.32 26.9663 23.32C27.5663 23.3467 28.1597 23.48 28.7463 23.72C29.333 23.96 29.8663 24.2867 30.3463 24.7C30.8263 25.1133 31.2063 25.6133 31.4863 26.2C31.7797 26.7733 31.9263 27.42 31.9263 28.14C31.9263 29.06 31.6863 29.9067 31.2063 30.68C30.7263 31.44 30.0463 32.0533 29.1663 32.52C28.2997 32.9733 27.273 33.2 26.0863 33.2ZM26.0663 30.32C26.453 30.32 26.813 30.24 27.1463 30.08C27.4797 29.9067 27.7463 29.6667 27.9463 29.36C28.1597 29.04 28.2663 28.6467 28.2663 28.18C28.2663 27.7133 28.1663 27.3267 27.9663 27.02C27.7663 26.7 27.4997 26.46 27.1663 26.3C26.833 26.14 26.4663 26.06 26.0663 26.06C25.6663 26.06 25.293 26.14 24.9463 26.3C24.613 26.46 24.3463 26.7 24.1463 27.02C23.9463 27.3267 23.8463 27.7133 23.8463 28.18C23.8463 28.6467 23.9463 29.04 24.1463 29.36C24.3597 29.6667 24.633 29.9067 24.9663 30.08C25.2997 30.24 25.6663 30.32 26.0663 30.32Z" fill="#E02323"/>
<path d="M144.086 239.2C142.913 239.2 141.88 238.987 140.986 238.56C140.093 238.133 139.393 237.547 138.886 236.8C138.393 236.04 138.146 235.173 138.146 234.2C138.146 233.787 138.206 233.38 138.326 232.98C138.46 232.567 138.62 232.18 138.806 231.82C138.993 231.447 139.18 231.12 139.366 230.84C139.553 230.547 139.706 230.313 139.826 230.14L143.346 225.4C143.413 225.333 143.5 225.253 143.606 225.16C143.713 225.053 143.866 225 144.066 225H146.726C146.846 225 146.946 225.047 147.026 225.14C147.106 225.22 147.146 225.32 147.146 225.44C147.146 225.493 147.14 225.547 147.126 225.6C147.113 225.64 147.093 225.673 147.066 225.7L144.366 229.38C144.446 229.353 144.54 229.34 144.646 229.34C144.766 229.327 144.873 229.32 144.966 229.32C145.566 229.347 146.16 229.48 146.746 229.72C147.333 229.96 147.866 230.287 148.346 230.7C148.826 231.113 149.206 231.613 149.486 232.2C149.78 232.773 149.926 233.42 149.926 234.14C149.926 235.06 149.686 235.907 149.206 236.68C148.726 237.44 148.046 238.053 147.166 238.52C146.3 238.973 145.273 239.2 144.086 239.2ZM144.066 236.32C144.453 236.32 144.813 236.24 145.146 236.08C145.48 235.907 145.746 235.667 145.946 235.36C146.16 235.04 146.266 234.647 146.266 234.18C146.266 233.713 146.166 233.327 145.966 233.02C145.766 232.7 145.5 232.46 145.166 232.3C144.833 232.14 144.466 232.06 144.066 232.06C143.666 232.06 143.293 232.14 142.946 232.3C142.613 232.46 142.346 232.7 142.146 233.02C141.946 233.327 141.846 233.713 141.846 234.18C141.846 234.647 141.946 235.04 142.146 235.36C142.36 235.667 142.633 235.907 142.966 236.08C143.3 236.24 143.666 236.32 144.066 236.32Z" fill="#E02323"/>
<path d="M26.0863 239.2C24.913 239.2 23.8797 238.987 22.9863 238.56C22.093 238.133 21.393 237.547 20.8863 236.8C20.393 236.04 20.1463 235.173 20.1463 234.2C20.1463 233.787 20.2063 233.38 20.3263 232.98C20.4597 232.567 20.6197 232.18 20.8063 231.82C20.993 231.447 21.1797 231.12 21.3663 230.84C21.553 230.547 21.7063 230.313 21.8263 230.14L25.3463 225.4C25.413 225.333 25.4997 225.253 25.6063 225.16C25.713 225.053 25.8663 225 26.0663 225H28.7263C28.8463 225 28.9463 225.047 29.0263 225.14C29.1063 225.22 29.1463 225.32 29.1463 225.44C29.1463 225.493 29.1397 225.547 29.1263 225.6C29.113 225.64 29.093 225.673 29.0663 225.7L26.3663 229.38C26.4463 229.353 26.5397 229.34 26.6463 229.34C26.7663 229.327 26.873 229.32 26.9663 229.32C27.5663 229.347 28.1597 229.48 28.7463 229.72C29.333 229.96 29.8663 230.287 30.3463 230.7C30.8263 231.113 31.2063 231.613 31.4863 232.2C31.7797 232.773 31.9263 233.42 31.9263 234.14C31.9263 235.06 31.6863 235.907 31.2063 236.68C30.7263 237.44 30.0463 238.053 29.1663 238.52C28.2997 238.973 27.273 239.2 26.0863 239.2ZM26.0663 236.32C26.453 236.32 26.813 236.24 27.1463 236.08C27.4797 235.907 27.7463 235.667 27.9463 235.36C28.1597 235.04 28.2663 234.647 28.2663 234.18C28.2663 233.713 28.1663 233.327 27.9663 233.02C27.7663 232.7 27.4997 232.46 27.1663 232.3C26.833 232.14 26.4663 232.06 26.0663 232.06C25.6663 232.06 25.293 232.14 24.9463 232.3C24.613 232.46 24.3463 232.7 24.1463 233.02C23.9463 233.327 23.8463 233.713 23.8463 234.18C23.8463 234.647 23.9463 235.04 24.1463 235.36C24.3597 235.667 24.633 235.907 24.9663 236.08C25.2997 236.24 25.6663 236.32 26.0663 236.32Z" fill="#E02323"/>
<path d="M85.5611 175.3C77.9345 175.3 71.2178 173.913 65.4111 171.14C59.6045 168.367 55.0545 164.553 51.7611 159.7C48.5545 154.76 46.9511 149.127 46.9511 142.8C46.9511 140.113 47.3411 137.47 48.1211 134.87C48.9878 132.183 50.0278 129.67 51.2411 127.33C52.4545 124.903 53.6678 122.78 54.8811 120.96C56.0945 119.053 57.0911 117.537 57.8711 116.41L80.7511 85.6C81.1845 85.1667 81.7478 84.6467 82.4411 84.04C83.1345 83.3467 84.1311 83 85.4311 83H102.721C103.501 83 104.151 83.3033 104.671 83.91C105.191 84.43 105.451 85.08 105.451 85.86C105.451 86.2067 105.408 86.5533 105.321 86.9C105.234 87.16 105.104 87.3767 104.931 87.55L87.3811 111.47C87.9011 111.297 88.5078 111.21 89.2011 111.21C89.9811 111.123 90.6745 111.08 91.2811 111.08C95.1811 111.253 99.0378 112.12 102.851 113.68C106.664 115.24 110.131 117.363 113.251 120.05C116.371 122.737 118.841 125.987 120.661 129.8C122.568 133.527 123.521 137.73 123.521 142.41C123.521 148.39 121.961 153.893 118.841 158.92C115.721 163.86 111.301 167.847 105.581 170.88C99.9478 173.827 93.2745 175.3 85.5611 175.3ZM85.4311 156.58C87.9445 156.58 90.2845 156.06 92.4511 155.02C94.6178 153.893 96.3511 152.333 97.6511 150.34C99.0378 148.26 99.7311 145.703 99.7311 142.67C99.7311 139.637 99.0811 137.123 97.7811 135.13C96.4811 133.05 94.7478 131.49 92.5811 130.45C90.4145 129.41 88.0311 128.89 85.4311 128.89C82.8311 128.89 80.4045 129.41 78.1511 130.45C75.9845 131.49 74.2511 133.05 72.9511 135.13C71.6511 137.123 71.0011 139.637 71.0011 142.67C71.0011 145.703 71.6511 148.26 72.9511 150.34C74.3378 152.333 76.1145 153.893 78.2811 155.02C80.4478 156.06 82.8311 156.58 85.4311 156.58Z" fill="#E02323"/>
</svg>
