<svg width="170" height="260" viewBox="0 0 170 260" fill="none" xmlns="http://www.w3.org/2000/svg">
<rect width="170" height="260" rx="15" fill="white"/>
<rect x="10" y="12" width="150" height="236" rx="7" fill="#F3F2EE"/>
<path d="M141.088 33C140.968 33 140.868 32.96 140.788 32.88C140.708 32.7867 140.668 32.68 140.668 32.56C140.668 32.5067 140.681 32.4467 140.708 32.38L145.328 22.02H139.328C139.194 22.02 139.074 21.9733 138.968 21.88C138.874 21.7733 138.828 21.6467 138.828 21.5V19.5C138.828 19.3533 138.874 19.2333 138.968 19.14C139.074 19.0467 139.194 19 139.328 19H148.688C148.848 19 148.974 19.0467 149.068 19.14C149.161 19.2333 149.208 19.3533 149.208 19.5V21.28C149.208 21.48 149.188 21.6467 149.148 21.78C149.108 21.9133 149.054 22.0467 148.988 22.18L144.368 32.52C144.328 32.6 144.254 32.7 144.148 32.82C144.041 32.94 143.881 33 143.668 33H141.088Z" fill="#E02323"/>
<path d="M23.0876 33C22.9676 33 22.8676 32.96 22.7876 32.88C22.7076 32.7867 22.6676 32.68 22.6676 32.56C22.6676 32.5067 22.6809 32.4467 22.7076 32.38L27.3276 22.02H21.3276C21.1942 22.02 21.0742 21.9733 20.9676 21.88C20.8742 21.7733 20.8276 21.6467 20.8276 21.5V19.5C20.8276 19.3533 20.8742 19.2333 20.9676 19.14C21.0742 19.0467 21.1942 19 21.3276 19H30.6876C30.8476 19 30.9742 19.0467 31.0676 19.14C31.1609 19.2333 31.2076 19.3533 31.2076 19.5V21.28C31.2076 21.48 31.1876 21.6467 31.1476 21.78C31.1076 21.9133 31.0542 22.0467 30.9876 22.18L26.3676 32.52C26.3276 32.6 26.2542 32.7 26.1476 32.82C26.0409 32.94 25.8809 33 25.6676 33H23.0876Z" fill="#E02323"/>
<path d="M141.088 239C140.968 239 140.868 238.96 140.788 238.88C140.708 238.787 140.668 238.68 140.668 238.56C140.668 238.507 140.681 238.447 140.708 238.38L145.328 228.02H139.328C139.194 228.02 139.074 227.973 138.968 227.88C138.874 227.773 138.828 227.647 138.828 227.5V225.5C138.828 225.353 138.874 225.233 138.968 225.14C139.074 225.047 139.194 225 139.328 225H148.688C148.848 225 148.974 225.047 149.068 225.14C149.161 225.233 149.208 225.353 149.208 225.5V227.28C149.208 227.48 149.188 227.647 149.148 227.78C149.108 227.913 149.054 228.047 148.988 228.18L144.368 238.52C144.328 238.6 144.254 238.7 144.148 238.82C144.041 238.94 143.881 239 143.668 239H141.088Z" fill="#E02323"/>
<path d="M23.0876 239C22.9676 239 22.8676 238.96 22.7876 238.88C22.7076 238.787 22.6676 238.68 22.6676 238.56C22.6676 238.507 22.6809 238.447 22.7076 238.38L27.3276 228.02H21.3276C21.1942 228.02 21.0742 227.973 20.9676 227.88C20.8742 227.773 20.8276 227.647 20.8276 227.5V225.5C20.8276 225.353 20.8742 225.233 20.9676 225.14C21.0742 225.047 21.1942 225 21.3276 225H30.6876C30.8476 225 30.9742 225.047 31.0676 225.14C31.1609 225.233 31.2076 225.353 31.2076 225.5V227.28C31.2076 227.48 31.1876 227.647 31.1476 227.78C31.1076 227.913 31.0542 228.047 30.9876 228.18L26.3676 238.52C26.3276 238.6 26.2542 238.7 26.1476 238.82C26.0409 238.94 25.8809 239 25.6676 239H23.0876Z" fill="#E02323"/>
<path d="M66.0693 174C65.2893 174 64.6393 173.74 64.1193 173.22C63.5993 172.613 63.3393 171.92 63.3393 171.14C63.3393 170.793 63.4259 170.403 63.5993 169.97L93.6293 102.63H54.6293C53.7626 102.63 52.9826 102.327 52.2893 101.72C51.6826 101.027 51.3793 100.203 51.3793 99.25V86.25C51.3793 85.2967 51.6826 84.5167 52.2893 83.91C52.9826 83.3033 53.7626 83 54.6293 83H115.469C116.509 83 117.333 83.3033 117.939 83.91C118.546 84.5167 118.849 85.2967 118.849 86.25V97.82C118.849 99.12 118.719 100.203 118.459 101.07C118.199 101.937 117.853 102.803 117.419 103.67L87.3893 170.88C87.1293 171.4 86.6526 172.05 85.9593 172.83C85.2659 173.61 84.2259 174 82.8393 174H66.0693Z" fill="#E02323"/>
</svg>
