<svg width="170" height="260" viewBox="0 0 170 260" fill="none" xmlns="http://www.w3.org/2000/svg">
<rect width="170" height="260" rx="15" fill="white"/>
<rect x="10" y="12" width="150" height="236" rx="7" fill="#F3F2EE"/>
<path d="M143.992 33.2C143.006 33.2 142.139 33.0867 141.392 32.86C140.659 32.6333 140.052 32.32 139.572 31.92C139.092 31.5067 138.732 31.04 138.492 30.52C138.252 29.9867 138.132 29.4133 138.132 28.8C138.132 28.0667 138.312 27.42 138.672 26.86C139.046 26.3 139.512 25.8667 140.072 25.56C139.606 25.2533 139.246 24.8733 138.992 24.42C138.752 23.9533 138.632 23.4133 138.632 22.8C138.632 22.0533 138.826 21.38 139.212 20.78C139.599 20.18 140.186 19.7 140.972 19.34C141.759 18.98 142.766 18.8 143.992 18.8C145.206 18.8 146.206 18.98 146.992 19.34C147.779 19.6867 148.359 20.16 148.732 20.76C149.119 21.36 149.312 22.0333 149.312 22.78C149.312 23.38 149.192 23.92 148.952 24.4C148.712 24.8667 148.366 25.2533 147.912 25.56C148.499 25.8533 148.972 26.2867 149.332 26.86C149.692 27.4333 149.872 28.0867 149.872 28.82C149.872 29.62 149.652 30.3533 149.212 31.02C148.786 31.6867 148.139 32.22 147.272 32.62C146.406 33.0067 145.312 33.2 143.992 33.2ZM143.992 30.66C144.419 30.66 144.799 30.5867 145.132 30.44C145.479 30.28 145.752 30.0667 145.952 29.8C146.152 29.52 146.252 29.1933 146.252 28.82C146.252 28.42 146.152 28.0867 145.952 27.82C145.752 27.5533 145.479 27.3467 145.132 27.2C144.799 27.0533 144.419 26.98 143.992 26.98C143.566 26.98 143.179 27.0533 142.832 27.2C142.486 27.3467 142.212 27.5533 142.012 27.82C141.812 28.0867 141.712 28.42 141.712 28.82C141.712 29.1933 141.812 29.52 142.012 29.8C142.212 30.0667 142.486 30.28 142.832 30.44C143.179 30.5867 143.566 30.66 143.992 30.66ZM143.992 24.56C144.366 24.56 144.706 24.4933 145.012 24.36C145.319 24.2133 145.559 24.0267 145.732 23.8C145.906 23.56 145.992 23.28 145.992 22.96C145.992 22.64 145.906 22.36 145.732 22.12C145.572 21.88 145.339 21.6933 145.032 21.56C144.726 21.4267 144.379 21.36 143.992 21.36C143.606 21.36 143.259 21.4267 142.952 21.56C142.646 21.6933 142.406 21.88 142.232 22.12C142.072 22.36 141.992 22.64 141.992 22.96C141.992 23.28 142.072 23.56 142.232 23.8C142.406 24.04 142.646 24.2267 142.952 24.36C143.259 24.4933 143.606 24.56 143.992 24.56Z" fill="#A2CF20"/>
<path d="M25.9924 33.2C25.0058 33.2 24.1391 33.0867 23.3924 32.86C22.6591 32.6333 22.0524 32.32 21.5724 31.92C21.0924 31.5067 20.7324 31.04 20.4924 30.52C20.2524 29.9867 20.1324 29.4133 20.1324 28.8C20.1324 28.0667 20.3124 27.42 20.6724 26.86C21.0458 26.3 21.5124 25.8667 22.0724 25.56C21.6058 25.2533 21.2458 24.8733 20.9924 24.42C20.7524 23.9533 20.6324 23.4133 20.6324 22.8C20.6324 22.0533 20.8258 21.38 21.2124 20.78C21.5991 20.18 22.1858 19.7 22.9724 19.34C23.7591 18.98 24.7658 18.8 25.9924 18.8C27.2058 18.8 28.2058 18.98 28.9924 19.34C29.7791 19.6867 30.3591 20.16 30.7324 20.76C31.1191 21.36 31.3124 22.0333 31.3124 22.78C31.3124 23.38 31.1924 23.92 30.9524 24.4C30.7124 24.8667 30.3658 25.2533 29.9124 25.56C30.4991 25.8533 30.9724 26.2867 31.3324 26.86C31.6924 27.4333 31.8724 28.0867 31.8724 28.82C31.8724 29.62 31.6524 30.3533 31.2124 31.02C30.7858 31.6867 30.1391 32.22 29.2724 32.62C28.4058 33.0067 27.3124 33.2 25.9924 33.2ZM25.9924 30.66C26.4191 30.66 26.7991 30.5867 27.1324 30.44C27.4791 30.28 27.7524 30.0667 27.9524 29.8C28.1524 29.52 28.2524 29.1933 28.2524 28.82C28.2524 28.42 28.1524 28.0867 27.9524 27.82C27.7524 27.5533 27.4791 27.3467 27.1324 27.2C26.7991 27.0533 26.4191 26.98 25.9924 26.98C25.5658 26.98 25.1791 27.0533 24.8324 27.2C24.4858 27.3467 24.2124 27.5533 24.0124 27.82C23.8124 28.0867 23.7124 28.42 23.7124 28.82C23.7124 29.1933 23.8124 29.52 24.0124 29.8C24.2124 30.0667 24.4858 30.28 24.8324 30.44C25.1791 30.5867 25.5658 30.66 25.9924 30.66ZM25.9924 24.56C26.3658 24.56 26.7058 24.4933 27.0124 24.36C27.3191 24.2133 27.5591 24.0267 27.7324 23.8C27.9058 23.56 27.9924 23.28 27.9924 22.96C27.9924 22.64 27.9058 22.36 27.7324 22.12C27.5724 21.88 27.3391 21.6933 27.0324 21.56C26.7258 21.4267 26.3791 21.36 25.9924 21.36C25.6058 21.36 25.2591 21.4267 24.9524 21.56C24.6458 21.6933 24.4058 21.88 24.2324 22.12C24.0724 22.36 23.9924 22.64 23.9924 22.96C23.9924 23.28 24.0724 23.56 24.2324 23.8C24.4058 24.04 24.6458 24.2267 24.9524 24.36C25.2591 24.4933 25.6058 24.56 25.9924 24.56Z" fill="#A2CF20"/>
<path d="M143.992 239.2C143.006 239.2 142.139 239.087 141.392 238.86C140.659 238.633 140.052 238.32 139.572 237.92C139.092 237.507 138.732 237.04 138.492 236.52C138.252 235.987 138.132 235.413 138.132 234.8C138.132 234.067 138.312 233.42 138.672 232.86C139.046 232.3 139.512 231.867 140.072 231.56C139.606 231.253 139.246 230.873 138.992 230.42C138.752 229.953 138.632 229.413 138.632 228.8C138.632 228.053 138.826 227.38 139.212 226.78C139.599 226.18 140.186 225.7 140.972 225.34C141.759 224.98 142.766 224.8 143.992 224.8C145.206 224.8 146.206 224.98 146.992 225.34C147.779 225.687 148.359 226.16 148.732 226.76C149.119 227.36 149.312 228.033 149.312 228.78C149.312 229.38 149.192 229.92 148.952 230.4C148.712 230.867 148.366 231.253 147.912 231.56C148.499 231.853 148.972 232.287 149.332 232.86C149.692 233.433 149.872 234.087 149.872 234.82C149.872 235.62 149.652 236.353 149.212 237.02C148.786 237.687 148.139 238.22 147.272 238.62C146.406 239.007 145.312 239.2 143.992 239.2ZM143.992 236.66C144.419 236.66 144.799 236.587 145.132 236.44C145.479 236.28 145.752 236.067 145.952 235.8C146.152 235.52 146.252 235.193 146.252 234.82C146.252 234.42 146.152 234.087 145.952 233.82C145.752 233.553 145.479 233.347 145.132 233.2C144.799 233.053 144.419 232.98 143.992 232.98C143.566 232.98 143.179 233.053 142.832 233.2C142.486 233.347 142.212 233.553 142.012 233.82C141.812 234.087 141.712 234.42 141.712 234.82C141.712 235.193 141.812 235.52 142.012 235.8C142.212 236.067 142.486 236.28 142.832 236.44C143.179 236.587 143.566 236.66 143.992 236.66ZM143.992 230.56C144.366 230.56 144.706 230.493 145.012 230.36C145.319 230.213 145.559 230.027 145.732 229.8C145.906 229.56 145.992 229.28 145.992 228.96C145.992 228.64 145.906 228.36 145.732 228.12C145.572 227.88 145.339 227.693 145.032 227.56C144.726 227.427 144.379 227.36 143.992 227.36C143.606 227.36 143.259 227.427 142.952 227.56C142.646 227.693 142.406 227.88 142.232 228.12C142.072 228.36 141.992 228.64 141.992 228.96C141.992 229.28 142.072 229.56 142.232 229.8C142.406 230.04 142.646 230.227 142.952 230.36C143.259 230.493 143.606 230.56 143.992 230.56Z" fill="#A2CF20"/>
<path d="M25.9924 239.2C25.0058 239.2 24.1391 239.087 23.3924 238.86C22.6591 238.633 22.0524 238.32 21.5724 237.92C21.0924 237.507 20.7324 237.04 20.4924 236.52C20.2524 235.987 20.1324 235.413 20.1324 234.8C20.1324 234.067 20.3124 233.42 20.6724 232.86C21.0458 232.3 21.5124 231.867 22.0724 231.56C21.6058 231.253 21.2458 230.873 20.9924 230.42C20.7524 229.953 20.6324 229.413 20.6324 228.8C20.6324 228.053 20.8258 227.38 21.2124 226.78C21.5991 226.18 22.1858 225.7 22.9724 225.34C23.7591 224.98 24.7658 224.8 25.9924 224.8C27.2058 224.8 28.2058 224.98 28.9924 225.34C29.7791 225.687 30.3591 226.16 30.7324 226.76C31.1191 227.36 31.3124 228.033 31.3124 228.78C31.3124 229.38 31.1924 229.92 30.9524 230.4C30.7124 230.867 30.3658 231.253 29.9124 231.56C30.4991 231.853 30.9724 232.287 31.3324 232.86C31.6924 233.433 31.8724 234.087 31.8724 234.82C31.8724 235.62 31.6524 236.353 31.2124 237.02C30.7858 237.687 30.1391 238.22 29.2724 238.62C28.4058 239.007 27.3124 239.2 25.9924 239.2ZM25.9924 236.66C26.4191 236.66 26.7991 236.587 27.1324 236.44C27.4791 236.28 27.7524 236.067 27.9524 235.8C28.1524 235.52 28.2524 235.193 28.2524 234.82C28.2524 234.42 28.1524 234.087 27.9524 233.82C27.7524 233.553 27.4791 233.347 27.1324 233.2C26.7991 233.053 26.4191 232.98 25.9924 232.98C25.5658 232.98 25.1791 233.053 24.8324 233.2C24.4858 233.347 24.2124 233.553 24.0124 233.82C23.8124 234.087 23.7124 234.42 23.7124 234.82C23.7124 235.193 23.8124 235.52 24.0124 235.8C24.2124 236.067 24.4858 236.28 24.8324 236.44C25.1791 236.587 25.5658 236.66 25.9924 236.66ZM25.9924 230.56C26.3658 230.56 26.7058 230.493 27.0124 230.36C27.3191 230.213 27.5591 230.027 27.7324 229.8C27.9058 229.56 27.9924 229.28 27.9924 228.96C27.9924 228.64 27.9058 228.36 27.7324 228.12C27.5724 227.88 27.3391 227.693 27.0324 227.56C26.7258 227.427 26.3791 227.36 25.9924 227.36C25.6058 227.36 25.2591 227.427 24.9524 227.56C24.6458 227.693 24.4058 227.88 24.2324 228.12C24.0724 228.36 23.9924 228.64 23.9924 228.96C23.9924 229.28 24.0724 229.56 24.2324 229.8C24.4058 230.04 24.6458 230.227 24.9524 230.36C25.2591 230.493 25.6058 230.56 25.9924 230.56Z" fill="#A2CF20"/>
<path d="M84.9507 175.3C78.5374 175.3 72.9041 174.563 68.0507 173.09C63.2841 171.617 59.3407 169.58 56.2207 166.98C53.1007 164.293 50.7607 161.26 49.2007 157.88C47.6407 154.413 46.8607 150.687 46.8607 146.7C46.8607 141.933 48.0307 137.73 50.3707 134.09C52.7974 130.45 55.8307 127.633 59.4707 125.64C56.4374 123.647 54.0974 121.177 52.4507 118.23C50.8907 115.197 50.1107 111.687 50.1107 107.7C50.1107 102.847 51.3674 98.47 53.8807 94.57C56.3941 90.67 60.2074 87.55 65.3207 85.21C70.4341 82.87 76.9774 81.7 84.9507 81.7C92.8374 81.7 99.3374 82.87 104.451 85.21C109.564 87.4633 113.334 90.54 115.761 94.44C118.274 98.34 119.531 102.717 119.531 107.57C119.531 111.47 118.751 114.98 117.191 118.1C115.631 121.133 113.377 123.647 110.431 125.64C114.244 127.547 117.321 130.363 119.661 134.09C122.001 137.817 123.171 142.063 123.171 146.83C123.171 152.03 121.741 156.797 118.881 161.13C116.107 165.463 111.904 168.93 106.271 171.53C100.637 174.043 93.5307 175.3 84.9507 175.3ZM84.9507 158.79C87.7241 158.79 90.1941 158.313 92.3607 157.36C94.6141 156.32 96.3907 154.933 97.6907 153.2C98.9907 151.38 99.6407 149.257 99.6407 146.83C99.6407 144.23 98.9907 142.063 97.6907 140.33C96.3907 138.597 94.6141 137.253 92.3607 136.3C90.1941 135.347 87.7241 134.87 84.9507 134.87C82.1774 134.87 79.6641 135.347 77.4107 136.3C75.1574 137.253 73.3807 138.597 72.0807 140.33C70.7807 142.063 70.1307 144.23 70.1307 146.83C70.1307 149.257 70.7807 151.38 72.0807 153.2C73.3807 154.933 75.1574 156.32 77.4107 157.36C79.6641 158.313 82.1774 158.79 84.9507 158.79ZM84.9507 119.14C87.3774 119.14 89.5874 118.707 91.5807 117.84C93.5741 116.887 95.1341 115.673 96.2607 114.2C97.3874 112.64 97.9507 110.82 97.9507 108.74C97.9507 106.66 97.3874 104.84 96.2607 103.28C95.2207 101.72 93.7041 100.507 91.7107 99.64C89.7174 98.7733 87.4641 98.34 84.9507 98.34C82.4374 98.34 80.1841 98.7733 78.1907 99.64C76.1974 100.507 74.6374 101.72 73.5107 103.28C72.4707 104.84 71.9507 106.66 71.9507 108.74C71.9507 110.82 72.4707 112.64 73.5107 114.2C74.6374 115.76 76.1974 116.973 78.1907 117.84C80.1841 118.707 82.4374 119.14 84.9507 119.14Z" fill="#A2CF20"/>
</svg>
