<svg width="170" height="260" viewBox="0 0 170 260" fill="none" xmlns="http://www.w3.org/2000/svg">
<rect width="170" height="260" rx="15" fill="white"/>
<rect x="10" y="12" width="150" height="236" rx="7" fill="#F3F2EE"/>
<path d="M141.074 33C140.954 33 140.854 32.96 140.774 32.88C140.694 32.7867 140.654 32.68 140.654 32.56C140.654 32.4933 140.66 32.44 140.674 32.4C140.7 32.36 140.72 32.3267 140.734 32.3L143.554 28.44C143.367 28.48 143.174 28.5 142.974 28.5C142.374 28.46 141.787 28.3267 141.214 28.1C140.64 27.86 140.12 27.54 139.654 27.14C139.2 26.7267 138.84 26.24 138.574 25.68C138.307 25.12 138.174 24.4933 138.174 23.8C138.174 23.16 138.294 22.5467 138.534 21.96C138.774 21.36 139.134 20.8267 139.614 20.36C140.094 19.88 140.687 19.5 141.394 19.22C142.114 18.94 142.947 18.8 143.894 18.8C144.84 18.8 145.674 18.9267 146.394 19.18C147.127 19.4333 147.74 19.7867 148.234 20.24C148.74 20.68 149.12 21.1933 149.374 21.78C149.627 22.3667 149.754 22.9933 149.754 23.66C149.754 24.2733 149.64 24.84 149.414 25.36C149.2 25.88 148.934 26.3733 148.614 26.84C148.294 27.2933 147.974 27.7533 147.654 28.22L144.454 32.6C144.4 32.6667 144.32 32.7533 144.214 32.86C144.107 32.9533 143.947 33 143.734 33H141.074ZM143.934 25.88C144.334 25.88 144.694 25.7933 145.014 25.62C145.334 25.4467 145.587 25.2067 145.774 24.9C145.96 24.5933 146.054 24.22 146.054 23.78C146.054 23.34 145.96 22.9667 145.774 22.66C145.587 22.34 145.334 22.1 145.014 21.94C144.694 21.7667 144.334 21.68 143.934 21.68C143.547 21.68 143.194 21.7667 142.874 21.94C142.554 22.1 142.3 22.34 142.114 22.66C141.927 22.9667 141.834 23.34 141.834 23.78C141.834 24.22 141.927 24.5933 142.114 24.9C142.3 25.2067 142.554 25.4467 142.874 25.62C143.194 25.7933 143.547 25.88 143.934 25.88Z" fill="#5797E2"/>
<path d="M23.0738 33C22.9538 33 22.8538 32.96 22.7738 32.88C22.6938 32.7867 22.6538 32.68 22.6538 32.56C22.6538 32.4933 22.6604 32.44 22.6738 32.4C22.7004 32.36 22.7204 32.3267 22.7338 32.3L25.5538 28.44C25.3671 28.48 25.1738 28.5 24.9738 28.5C24.3738 28.46 23.7871 28.3267 23.2138 28.1C22.6404 27.86 22.1204 27.54 21.6538 27.14C21.2004 26.7267 20.8404 26.24 20.5738 25.68C20.3071 25.12 20.1738 24.4933 20.1738 23.8C20.1738 23.16 20.2938 22.5467 20.5338 21.96C20.7738 21.36 21.1338 20.8267 21.6138 20.36C22.0938 19.88 22.6871 19.5 23.3938 19.22C24.1138 18.94 24.9471 18.8 25.8938 18.8C26.8404 18.8 27.6738 18.9267 28.3938 19.18C29.1271 19.4333 29.7404 19.7867 30.2338 20.24C30.7404 20.68 31.1204 21.1933 31.3738 21.78C31.6271 22.3667 31.7538 22.9933 31.7538 23.66C31.7538 24.2733 31.6404 24.84 31.4138 25.36C31.2004 25.88 30.9338 26.3733 30.6137 26.84C30.2938 27.2933 29.9738 27.7533 29.6538 28.22L26.4538 32.6C26.4004 32.6667 26.3204 32.7533 26.2138 32.86C26.1071 32.9533 25.9471 33 25.7338 33H23.0738ZM25.9338 25.88C26.3338 25.88 26.6938 25.7933 27.0138 25.62C27.3338 25.4467 27.5871 25.2067 27.7738 24.9C27.9604 24.5933 28.0538 24.22 28.0538 23.78C28.0538 23.34 27.9604 22.9667 27.7738 22.66C27.5871 22.34 27.3338 22.1 27.0138 21.94C26.6938 21.7667 26.3338 21.68 25.9338 21.68C25.5471 21.68 25.1938 21.7667 24.8737 21.94C24.5538 22.1 24.3004 22.34 24.1138 22.66C23.9271 22.9667 23.8338 23.34 23.8338 23.78C23.8338 24.22 23.9271 24.5933 24.1138 24.9C24.3004 25.2067 24.5538 25.4467 24.8737 25.62C25.1938 25.7933 25.5471 25.88 25.9338 25.88Z" fill="#5797E2"/>
<path d="M141.074 239C140.954 239 140.854 238.96 140.774 238.88C140.694 238.787 140.654 238.68 140.654 238.56C140.654 238.493 140.66 238.44 140.674 238.4C140.7 238.36 140.72 238.327 140.734 238.3L143.554 234.44C143.367 234.48 143.174 234.5 142.974 234.5C142.374 234.46 141.787 234.327 141.214 234.1C140.64 233.86 140.12 233.54 139.654 233.14C139.2 232.727 138.84 232.24 138.574 231.68C138.307 231.12 138.174 230.493 138.174 229.8C138.174 229.16 138.294 228.547 138.534 227.96C138.774 227.36 139.134 226.827 139.614 226.36C140.094 225.88 140.687 225.5 141.394 225.22C142.114 224.94 142.947 224.8 143.894 224.8C144.84 224.8 145.674 224.927 146.394 225.18C147.127 225.433 147.74 225.787 148.234 226.24C148.74 226.68 149.12 227.193 149.374 227.78C149.627 228.367 149.754 228.993 149.754 229.66C149.754 230.273 149.64 230.84 149.414 231.36C149.2 231.88 148.934 232.373 148.614 232.84C148.294 233.293 147.974 233.753 147.654 234.22L144.454 238.6C144.4 238.667 144.32 238.753 144.214 238.86C144.107 238.953 143.947 239 143.734 239H141.074ZM143.934 231.88C144.334 231.88 144.694 231.793 145.014 231.62C145.334 231.447 145.587 231.207 145.774 230.9C145.96 230.593 146.054 230.22 146.054 229.78C146.054 229.34 145.96 228.967 145.774 228.66C145.587 228.34 145.334 228.1 145.014 227.94C144.694 227.767 144.334 227.68 143.934 227.68C143.547 227.68 143.194 227.767 142.874 227.94C142.554 228.1 142.3 228.34 142.114 228.66C141.927 228.967 141.834 229.34 141.834 229.78C141.834 230.22 141.927 230.593 142.114 230.9C142.3 231.207 142.554 231.447 142.874 231.62C143.194 231.793 143.547 231.88 143.934 231.88Z" fill="#5797E2"/>
<path d="M23.0738 239C22.9538 239 22.8538 238.96 22.7738 238.88C22.6938 238.787 22.6538 238.68 22.6538 238.56C22.6538 238.493 22.6604 238.44 22.6738 238.4C22.7004 238.36 22.7204 238.327 22.7338 238.3L25.5538 234.44C25.3671 234.48 25.1738 234.5 24.9738 234.5C24.3738 234.46 23.7871 234.327 23.2138 234.1C22.6404 233.86 22.1204 233.54 21.6538 233.14C21.2004 232.727 20.8404 232.24 20.5738 231.68C20.3071 231.12 20.1738 230.493 20.1738 229.8C20.1738 229.16 20.2938 228.547 20.5338 227.96C20.7738 227.36 21.1338 226.827 21.6138 226.36C22.0938 225.88 22.6871 225.5 23.3938 225.22C24.1138 224.94 24.9471 224.8 25.8938 224.8C26.8404 224.8 27.6738 224.927 28.3938 225.18C29.1271 225.433 29.7404 225.787 30.2338 226.24C30.7404 226.68 31.1204 227.193 31.3738 227.78C31.6271 228.367 31.7538 228.993 31.7538 229.66C31.7538 230.273 31.6404 230.84 31.4138 231.36C31.2004 231.88 30.9338 232.373 30.6137 232.84C30.2938 233.293 29.9738 233.753 29.6538 234.22L26.4538 238.6C26.4004 238.667 26.3204 238.753 26.2138 238.86C26.1071 238.953 25.9471 239 25.7338 239H23.0738ZM25.9338 231.88C26.3338 231.88 26.6938 231.793 27.0138 231.62C27.3338 231.447 27.5871 231.207 27.7738 230.9C27.9604 230.593 28.0538 230.22 28.0538 229.78C28.0538 229.34 27.9604 228.967 27.7738 228.66C27.5871 228.34 27.3338 228.1 27.0138 227.94C26.6938 227.767 26.3338 227.68 25.9338 227.68C25.5471 227.68 25.1938 227.767 24.8737 227.94C24.5538 228.1 24.3004 228.34 24.1138 228.66C23.9271 228.967 23.8338 229.34 23.8338 229.78C23.8338 230.22 23.9271 230.593 24.1138 230.9C24.3004 231.207 24.5538 231.447 24.8737 231.62C25.1938 231.793 25.5471 231.88 25.9338 231.88Z" fill="#5797E2"/>
<path d="M65.9794 174C65.1994 174 64.5494 173.74 64.0294 173.22C63.5094 172.613 63.2494 171.92 63.2494 171.14C63.2494 170.707 63.2927 170.36 63.3794 170.1C63.5527 169.84 63.6827 169.623 63.7694 169.45L82.0994 144.36C80.886 144.62 79.6294 144.75 78.3294 144.75C74.4294 144.49 70.616 143.623 66.8894 142.15C63.1627 140.59 59.7827 138.51 56.7494 135.91C53.8027 133.223 51.4627 130.06 49.7294 126.42C47.996 122.78 47.1294 118.707 47.1294 114.2C47.1294 110.04 47.9094 106.053 49.4694 102.24C51.0294 98.34 53.3694 94.8733 56.4894 91.84C59.6094 88.72 63.466 86.25 68.0594 84.43C72.7394 82.61 78.156 81.7 84.3094 81.7C90.4627 81.7 95.8794 82.5233 100.559 84.17C105.326 85.8167 109.313 88.1133 112.519 91.06C115.813 93.92 118.283 97.2567 119.929 101.07C121.576 104.883 122.399 108.957 122.399 113.29C122.399 117.277 121.663 120.96 120.189 124.34C118.803 127.72 117.069 130.927 114.989 133.96C112.909 136.907 110.829 139.897 108.749 142.93L87.9494 171.4C87.6027 171.833 87.0827 172.397 86.3894 173.09C85.696 173.697 84.656 174 83.2694 174H65.9794ZM84.5694 127.72C87.1694 127.72 89.5094 127.157 91.5894 126.03C93.6694 124.903 95.316 123.343 96.5294 121.35C97.7427 119.357 98.3494 116.93 98.3494 114.07C98.3494 111.21 97.7427 108.783 96.5294 106.79C95.316 104.71 93.6694 103.15 91.5894 102.11C89.5094 100.983 87.1694 100.42 84.5694 100.42C82.056 100.42 79.7594 100.983 77.6794 102.11C75.5994 103.15 73.9527 104.71 72.7394 106.79C71.526 108.783 70.9194 111.21 70.9194 114.07C70.9194 116.93 71.526 119.357 72.7394 121.35C73.9527 123.343 75.5994 124.903 77.6794 126.03C79.7594 127.157 82.056 127.72 84.5694 127.72Z" fill="#5797E2"/>
</svg>
