<svg width="170" height="260" viewBox="0 0 170 260" fill="none" xmlns="http://www.w3.org/2000/svg">
<rect width="170" height="260" rx="15" fill="white"/>
<rect x="10" y="12" width="150" height="236" rx="7" fill="#F3F2EE"/>
<path d="M142.982 34.175C142.799 34.175 142.649 34.1167 142.532 34C142.416 33.8833 142.357 33.7333 142.357 33.55V28.975H137.907C137.724 28.975 137.566 28.9167 137.432 28.8C137.316 28.6833 137.257 28.5333 137.257 28.35V26.525C137.257 26.3417 137.316 26.1917 137.432 26.075C137.566 25.9583 137.724 25.9 137.907 25.9H142.357V21.45C142.357 21.2667 142.416 21.1167 142.532 21C142.649 20.8833 142.799 20.825 142.982 20.825H145.032C145.199 20.825 145.341 20.8833 145.457 21C145.591 21.1167 145.657 21.2667 145.657 21.45V25.9H150.082C150.266 25.9 150.416 25.9583 150.532 26.075C150.649 26.1917 150.707 26.3417 150.707 26.525V28.35C150.707 28.5333 150.649 28.6833 150.532 28.8C150.416 28.9167 150.266 28.975 150.082 28.975H145.657V33.55C145.657 33.7333 145.591 33.8833 145.457 34C145.341 34.1167 145.199 34.175 145.032 34.175H142.982Z" fill="#E02323"/>
<path d="M24.9822 34.175C24.7989 34.175 24.6489 34.1167 24.5322 34C24.4156 33.8833 24.3572 33.7333 24.3572 33.55V28.975H19.9072C19.7239 28.975 19.5656 28.9167 19.4322 28.8C19.3156 28.6833 19.2572 28.5333 19.2572 28.35V26.525C19.2572 26.3417 19.3156 26.1917 19.4322 26.075C19.5656 25.9583 19.7239 25.9 19.9072 25.9H24.3572V21.45C24.3572 21.2667 24.4156 21.1167 24.5322 21C24.6489 20.8833 24.7989 20.825 24.9822 20.825H27.0322C27.1989 20.825 27.3406 20.8833 27.4572 21C27.5906 21.1167 27.6572 21.2667 27.6572 21.45V25.9H32.0822C32.2656 25.9 32.4156 25.9583 32.5322 26.075C32.6489 26.1917 32.7072 26.3417 32.7072 26.525V28.35C32.7072 28.5333 32.6489 28.6833 32.5322 28.8C32.4156 28.9167 32.2656 28.975 32.0822 28.975H27.6572V33.55C27.6572 33.7333 27.5906 33.8833 27.4572 34C27.3406 34.1167 27.1989 34.175 27.0322 34.175H24.9822Z" fill="#E02323"/>
<path d="M142.982 240.175C142.799 240.175 142.649 240.117 142.532 240C142.416 239.883 142.357 239.733 142.357 239.55V234.975H137.907C137.724 234.975 137.566 234.917 137.432 234.8C137.316 234.683 137.257 234.533 137.257 234.35V232.525C137.257 232.342 137.316 232.192 137.432 232.075C137.566 231.958 137.724 231.9 137.907 231.9H142.357V227.45C142.357 227.267 142.416 227.117 142.532 227C142.649 226.883 142.799 226.825 142.982 226.825H145.032C145.199 226.825 145.341 226.883 145.457 227C145.591 227.117 145.657 227.267 145.657 227.45V231.9H150.082C150.266 231.9 150.416 231.958 150.532 232.075C150.649 232.192 150.707 232.342 150.707 232.525V234.35C150.707 234.533 150.649 234.683 150.532 234.8C150.416 234.917 150.266 234.975 150.082 234.975H145.657V239.55C145.657 239.733 145.591 239.883 145.457 240C145.341 240.117 145.199 240.175 145.032 240.175H142.982Z" fill="#E02323"/>
<path d="M24.9822 240.175C24.7989 240.175 24.6489 240.117 24.5322 240C24.4156 239.883 24.3572 239.733 24.3572 239.55V234.975H19.9072C19.7239 234.975 19.5656 234.917 19.4322 234.8C19.3156 234.683 19.2572 234.533 19.2572 234.35V232.525C19.2572 232.342 19.3156 232.192 19.4322 232.075C19.5656 231.958 19.7239 231.9 19.9072 231.9H24.3572V227.45C24.3572 227.267 24.4156 227.117 24.5322 227C24.6489 226.883 24.7989 226.825 24.9822 226.825H27.0322C27.1989 226.825 27.3406 226.883 27.4572 227C27.5906 227.117 27.6572 227.267 27.6572 227.45V231.9H32.0822C32.2656 231.9 32.4156 231.958 32.5322 232.075C32.6489 232.192 32.7072 232.342 32.7072 232.525V234.35C32.7072 234.533 32.6489 234.683 32.5322 234.8C32.4156 234.917 32.2656 234.975 32.0822 234.975H27.6572V239.55C27.6572 239.733 27.5906 239.883 27.4572 240C27.3406 240.117 27.1989 240.175 27.0322 240.175H24.9822Z" fill="#E02323"/>
<path d="M76.42 174.72C75.2467 174.72 74.2333 174.293 73.38 173.44C72.5267 172.587 72.1 171.573 72.1 170.4V144.64H47.3C46.1267 144.64 45.1133 144.213 44.26 143.36C43.4067 142.507 42.98 141.493 42.98 140.32V122.88C42.98 121.707 43.4067 120.693 44.26 119.84C45.1133 118.987 46.1267 118.56 47.3 118.56H72.1V93.6C72.1 92.4267 72.5267 91.4133 73.38 90.56C74.2333 89.7067 75.2467 89.28 76.42 89.28H95.94C97.1133 89.28 98.1267 89.7067 98.98 90.56C99.8333 91.4133 100.26 92.4267 100.26 93.6V118.56H124.74C125.913 118.56 126.927 118.987 127.78 119.84C128.633 120.693 129.06 121.707 129.06 122.88V140.32C129.06 141.493 128.633 142.507 127.78 143.36C126.927 144.213 125.913 144.64 124.74 144.64H100.26V170.4C100.26 171.573 99.8333 172.587 98.98 173.44C98.1267 174.293 97.1133 174.72 95.94 174.72H76.42Z" fill="#E02323"/>
</svg>
