<svg width="170" height="260" viewBox="0 0 170 260" fill="none" xmlns="http://www.w3.org/2000/svg">
<rect width="170" height="260" rx="15" fill="white"/>
<rect x="10" y="12" width="150" height="236" rx="7" fill="#F3F2EE"/>
<path d="M143.908 33.2C142.868 33.2 141.982 33.08 141.248 32.84C140.515 32.5867 139.915 32.2667 139.448 31.88C138.982 31.48 138.635 31.06 138.408 30.62C138.182 30.1667 138.062 29.7333 138.048 29.32C138.048 29.2 138.088 29.1 138.168 29.02C138.262 28.94 138.368 28.9 138.488 28.9H141.088C141.248 28.9 141.375 28.9333 141.468 29C141.562 29.0533 141.648 29.1467 141.728 29.28C141.835 29.5333 141.988 29.74 142.188 29.9C142.402 30.06 142.655 30.1733 142.948 30.24C143.242 30.2933 143.562 30.32 143.908 30.32C144.588 30.32 145.115 30.1667 145.488 29.86C145.875 29.54 146.068 29.1067 146.068 28.56C146.068 27.9867 145.888 27.58 145.528 27.34C145.168 27.0867 144.655 26.96 143.988 26.96H141.768C141.622 26.96 141.502 26.9133 141.408 26.82C141.315 26.7267 141.268 26.6067 141.268 26.46V25.34C141.268 25.18 141.302 25.04 141.368 24.92C141.435 24.8 141.508 24.7133 141.588 24.66L144.868 21.88H139.308C139.175 21.88 139.055 21.8333 138.948 21.74C138.855 21.6467 138.808 21.5267 138.808 21.38V19.5C138.808 19.3533 138.855 19.2333 138.948 19.14C139.055 19.0467 139.175 19 139.308 19H148.508C148.655 19 148.775 19.0467 148.868 19.14C148.975 19.2333 149.028 19.3533 149.028 19.5V21.2C149.028 21.3467 148.995 21.48 148.928 21.6C148.862 21.7067 148.788 21.7933 148.708 21.86L145.668 24.68L145.808 24.72C146.568 24.8133 147.248 25.02 147.848 25.34C148.448 25.6467 148.922 26.08 149.268 26.64C149.615 27.2 149.788 27.9133 149.788 28.78C149.788 29.6867 149.528 30.4733 149.008 31.14C148.502 31.7933 147.808 32.3 146.928 32.66C146.048 33.02 145.042 33.2 143.908 33.2Z" fill="#F7D06C"/>
<path d="M25.9082 33.2C24.8682 33.2 23.9815 33.08 23.2482 32.84C22.5149 32.5867 21.9149 32.2667 21.4482 31.88C20.9815 31.48 20.6349 31.06 20.4082 30.62C20.1815 30.1667 20.0615 29.7333 20.0482 29.32C20.0482 29.2 20.0882 29.1 20.1682 29.02C20.2615 28.94 20.3682 28.9 20.4882 28.9H23.0882C23.2482 28.9 23.3749 28.9333 23.4682 29C23.5615 29.0533 23.6482 29.1467 23.7282 29.28C23.8349 29.5333 23.9882 29.74 24.1882 29.9C24.4015 30.06 24.6549 30.1733 24.9482 30.24C25.2415 30.2933 25.5615 30.32 25.9082 30.32C26.5882 30.32 27.1149 30.1667 27.4882 29.86C27.8749 29.54 28.0682 29.1067 28.0682 28.56C28.0682 27.9867 27.8882 27.58 27.5282 27.34C27.1682 27.0867 26.6549 26.96 25.9882 26.96H23.7682C23.6215 26.96 23.5015 26.9133 23.4082 26.82C23.3149 26.7267 23.2682 26.6067 23.2682 26.46V25.34C23.2682 25.18 23.3015 25.04 23.3682 24.92C23.4349 24.8 23.5082 24.7133 23.5882 24.66L26.8682 21.88H21.3082C21.1749 21.88 21.0549 21.8333 20.9482 21.74C20.8549 21.6467 20.8082 21.5267 20.8082 21.38V19.5C20.8082 19.3533 20.8549 19.2333 20.9482 19.14C21.0549 19.0467 21.1749 19 21.3082 19H30.5082C30.6549 19 30.7749 19.0467 30.8682 19.14C30.9749 19.2333 31.0282 19.3533 31.0282 19.5V21.2C31.0282 21.3467 30.9949 21.48 30.9282 21.6C30.8615 21.7067 30.7882 21.7933 30.7082 21.86L27.6682 24.68L27.8082 24.72C28.5682 24.8133 29.2482 25.02 29.8482 25.34C30.4482 25.6467 30.9215 26.08 31.2682 26.64C31.6149 27.2 31.7882 27.9133 31.7882 28.78C31.7882 29.6867 31.5282 30.4733 31.0082 31.14C30.5015 31.7933 29.8082 32.3 28.9282 32.66C28.0482 33.02 27.0415 33.2 25.9082 33.2Z" fill="#F7D06C"/>
<path d="M143.908 239.2C142.868 239.2 141.982 239.08 141.248 238.84C140.515 238.587 139.915 238.267 139.448 237.88C138.982 237.48 138.635 237.06 138.408 236.62C138.182 236.167 138.062 235.733 138.048 235.32C138.048 235.2 138.088 235.1 138.168 235.02C138.262 234.94 138.368 234.9 138.488 234.9H141.088C141.248 234.9 141.375 234.933 141.468 235C141.562 235.053 141.648 235.147 141.728 235.28C141.835 235.533 141.988 235.74 142.188 235.9C142.402 236.06 142.655 236.173 142.948 236.24C143.242 236.293 143.562 236.32 143.908 236.32C144.588 236.32 145.115 236.167 145.488 235.86C145.875 235.54 146.068 235.107 146.068 234.56C146.068 233.987 145.888 233.58 145.528 233.34C145.168 233.087 144.655 232.96 143.988 232.96H141.768C141.622 232.96 141.502 232.913 141.408 232.82C141.315 232.727 141.268 232.607 141.268 232.46V231.34C141.268 231.18 141.302 231.04 141.368 230.92C141.435 230.8 141.508 230.713 141.588 230.66L144.868 227.88H139.308C139.175 227.88 139.055 227.833 138.948 227.74C138.855 227.647 138.808 227.527 138.808 227.38V225.5C138.808 225.353 138.855 225.233 138.948 225.14C139.055 225.047 139.175 225 139.308 225H148.508C148.655 225 148.775 225.047 148.868 225.14C148.975 225.233 149.028 225.353 149.028 225.5V227.2C149.028 227.347 148.995 227.48 148.928 227.6C148.862 227.707 148.788 227.793 148.708 227.86L145.668 230.68L145.808 230.72C146.568 230.813 147.248 231.02 147.848 231.34C148.448 231.647 148.922 232.08 149.268 232.64C149.615 233.2 149.788 233.913 149.788 234.78C149.788 235.687 149.528 236.473 149.008 237.14C148.502 237.793 147.808 238.3 146.928 238.66C146.048 239.02 145.042 239.2 143.908 239.2Z" fill="#F7D06C"/>
<path d="M25.9082 239.2C24.8682 239.2 23.9815 239.08 23.2482 238.84C22.5149 238.587 21.9149 238.267 21.4482 237.88C20.9815 237.48 20.6349 237.06 20.4082 236.62C20.1815 236.167 20.0615 235.733 20.0482 235.32C20.0482 235.2 20.0882 235.1 20.1682 235.02C20.2615 234.94 20.3682 234.9 20.4882 234.9H23.0882C23.2482 234.9 23.3749 234.933 23.4682 235C23.5615 235.053 23.6482 235.147 23.7282 235.28C23.8349 235.533 23.9882 235.74 24.1882 235.9C24.4015 236.06 24.6549 236.173 24.9482 236.24C25.2415 236.293 25.5615 236.32 25.9082 236.32C26.5882 236.32 27.1149 236.167 27.4882 235.86C27.8749 235.54 28.0682 235.107 28.0682 234.56C28.0682 233.987 27.8882 233.58 27.5282 233.34C27.1682 233.087 26.6549 232.96 25.9882 232.96H23.7682C23.6215 232.96 23.5015 232.913 23.4082 232.82C23.3149 232.727 23.2682 232.607 23.2682 232.46V231.34C23.2682 231.18 23.3015 231.04 23.3682 230.92C23.4349 230.8 23.5082 230.713 23.5882 230.66L26.8682 227.88H21.3082C21.1749 227.88 21.0549 227.833 20.9482 227.74C20.8549 227.647 20.8082 227.527 20.8082 227.38V225.5C20.8082 225.353 20.8549 225.233 20.9482 225.14C21.0549 225.047 21.1749 225 21.3082 225H30.5082C30.6549 225 30.7749 225.047 30.8682 225.14C30.9749 225.233 31.0282 225.353 31.0282 225.5V227.2C31.0282 227.347 30.9949 227.48 30.9282 227.6C30.8615 227.707 30.7882 227.793 30.7082 227.86L27.6682 230.68L27.8082 230.72C28.5682 230.813 29.2482 231.02 29.8482 231.34C30.4482 231.647 30.9215 232.08 31.2682 232.64C31.6149 233.2 31.7882 233.913 31.7882 234.78C31.7882 235.687 31.5282 236.473 31.0082 237.14C30.5015 237.793 29.8082 238.3 28.9282 238.66C28.0482 239.02 27.0415 239.2 25.9082 239.2Z" fill="#F7D06C"/>
<path d="M84.4033 175.3C77.6433 175.3 71.88 174.52 67.1133 172.96C62.3467 171.313 58.4467 169.233 55.4133 166.72C52.38 164.12 50.1267 161.39 48.6533 158.53C47.18 155.583 46.4 152.767 46.3133 150.08C46.3133 149.3 46.5733 148.65 47.0933 148.13C47.7 147.61 48.3933 147.35 49.1733 147.35H66.0733C67.1133 147.35 67.9367 147.567 68.5433 148C69.15 148.347 69.7133 148.953 70.2333 149.82C70.9267 151.467 71.9233 152.81 73.2233 153.85C74.61 154.89 76.2567 155.627 78.1633 156.06C80.07 156.407 82.15 156.58 84.4033 156.58C88.8233 156.58 92.2467 155.583 94.6733 153.59C97.1867 151.51 98.4433 148.693 98.4433 145.14C98.4433 141.413 97.2733 138.77 94.9333 137.21C92.5933 135.563 89.2567 134.74 84.9233 134.74H70.4933C69.54 134.74 68.76 134.437 68.1533 133.83C67.5467 133.223 67.2433 132.443 67.2433 131.49V124.21C67.2433 123.17 67.46 122.26 67.8933 121.48C68.3267 120.7 68.8033 120.137 69.3233 119.79L90.6433 101.72H54.5033C53.6367 101.72 52.8567 101.417 52.1633 100.81C51.5567 100.203 51.2533 99.4233 51.2533 98.47V86.25C51.2533 85.2967 51.5567 84.5167 52.1633 83.91C52.8567 83.3033 53.6367 83 54.5033 83H114.303C115.257 83 116.037 83.3033 116.643 83.91C117.337 84.5167 117.683 85.2967 117.683 86.25V97.3C117.683 98.2533 117.467 99.12 117.033 99.9C116.6 100.593 116.123 101.157 115.603 101.59L95.8433 119.92L96.7533 120.18C101.693 120.787 106.113 122.13 110.013 124.21C113.913 126.203 116.99 129.02 119.243 132.66C121.497 136.3 122.623 140.937 122.623 146.57C122.623 152.463 120.933 157.577 117.553 161.91C114.26 166.157 109.753 169.45 104.033 171.79C98.3133 174.13 91.77 175.3 84.4033 175.3Z" fill="#F7D06C"/>
</svg>
