<svg width="170" height="260" viewBox="0 0 170 260" fill="none" xmlns="http://www.w3.org/2000/svg">
<rect width="170" height="260" rx="15" fill="white"/>
<rect x="10" y="12" width="150" height="236" rx="7" fill="#F3F2EE"/>
<path d="M144.964 33C144.83 33 144.71 32.9533 144.604 32.86C144.51 32.7667 144.464 32.6467 144.464 32.5V30.24H138.244C138.11 30.24 137.99 30.1933 137.884 30.1C137.79 30.0067 137.744 29.8867 137.744 29.74V27.84C137.744 27.72 137.764 27.6133 137.804 27.52C137.857 27.4133 137.91 27.3133 137.964 27.22L143.784 19.34C143.957 19.1133 144.204 19 144.524 19H147.424C147.57 19 147.69 19.0467 147.784 19.14C147.89 19.2333 147.944 19.3533 147.944 19.5V27.26H149.704C149.864 27.26 149.99 27.3133 150.084 27.42C150.177 27.5133 150.224 27.6267 150.224 27.76V29.74C150.224 29.8867 150.17 30.0067 150.064 30.1C149.97 30.1933 149.857 30.24 149.724 30.24H147.944V32.5C147.944 32.6467 147.89 32.7667 147.784 32.86C147.69 32.9533 147.57 33 147.424 33H144.964ZM141.184 27.4H144.544V22.68L141.184 27.4Z" fill="#A2CF20"/>
<path d="M26.9636 33C26.8303 33 26.7103 32.9533 26.6036 32.86C26.5103 32.7667 26.4636 32.6467 26.4636 32.5V30.24H20.2436C20.1103 30.24 19.9903 30.1933 19.8836 30.1C19.7903 30.0067 19.7436 29.8867 19.7436 29.74V27.84C19.7436 27.72 19.7636 27.6133 19.8036 27.52C19.8569 27.4133 19.9103 27.3133 19.9636 27.22L25.7836 19.34C25.9569 19.1133 26.2036 19 26.5236 19H29.4236C29.5703 19 29.6903 19.0467 29.7836 19.14C29.8903 19.2333 29.9436 19.3533 29.9436 19.5V27.26H31.7036C31.8636 27.26 31.9903 27.3133 32.0836 27.42C32.1769 27.5133 32.2236 27.6267 32.2236 27.76V29.74C32.2236 29.8867 32.1703 30.0067 32.0636 30.1C31.9703 30.1933 31.8569 30.24 31.7236 30.24H29.9436V32.5C29.9436 32.6467 29.8903 32.7667 29.7836 32.86C29.6903 32.9533 29.5703 33 29.4236 33H26.9636ZM23.1836 27.4H26.5436V22.68L23.1836 27.4Z" fill="#A2CF20"/>
<path d="M144.964 239C144.83 239 144.71 238.953 144.604 238.86C144.51 238.767 144.464 238.647 144.464 238.5V236.24H138.244C138.11 236.24 137.99 236.193 137.884 236.1C137.79 236.007 137.744 235.887 137.744 235.74V233.84C137.744 233.72 137.764 233.613 137.804 233.52C137.857 233.413 137.91 233.313 137.964 233.22L143.784 225.34C143.957 225.113 144.204 225 144.524 225H147.424C147.57 225 147.69 225.047 147.784 225.14C147.89 225.233 147.944 225.353 147.944 225.5V233.26H149.704C149.864 233.26 149.99 233.313 150.084 233.42C150.177 233.513 150.224 233.627 150.224 233.76V235.74C150.224 235.887 150.17 236.007 150.064 236.1C149.97 236.193 149.857 236.24 149.724 236.24H147.944V238.5C147.944 238.647 147.89 238.767 147.784 238.86C147.69 238.953 147.57 239 147.424 239H144.964ZM141.184 233.4H144.544V228.68L141.184 233.4Z" fill="#A2CF20"/>
<path d="M26.9636 239C26.8303 239 26.7103 238.953 26.6036 238.86C26.5103 238.767 26.4636 238.647 26.4636 238.5V236.24H20.2436C20.1103 236.24 19.9903 236.193 19.8836 236.1C19.7903 236.007 19.7436 235.887 19.7436 235.74V233.84C19.7436 233.72 19.7636 233.613 19.8036 233.52C19.8569 233.413 19.9103 233.313 19.9636 233.22L25.7836 225.34C25.9569 225.113 26.2036 225 26.5236 225H29.4236C29.5703 225 29.6903 225.047 29.7836 225.14C29.8903 225.233 29.9436 225.353 29.9436 225.5V233.26H31.7036C31.8636 233.26 31.9903 233.313 32.0836 233.42C32.1769 233.513 32.2236 233.627 32.2236 233.76V235.74C32.2236 235.887 32.1703 236.007 32.0636 236.1C31.9703 236.193 31.8569 236.24 31.7236 236.24H29.9436V238.5C29.9436 238.647 29.8903 238.767 29.7836 238.86C29.6903 238.953 29.5703 239 29.4236 239H26.9636ZM23.1836 233.4H26.5436V228.68L23.1836 233.4Z" fill="#A2CF20"/>
<path d="M91.2634 174C90.3967 174 89.6167 173.697 88.9234 173.09C88.3167 172.483 88.0134 171.703 88.0134 170.75V156.06H47.5834C46.7167 156.06 45.9367 155.757 45.2434 155.15C44.6367 154.543 44.3334 153.763 44.3334 152.81V140.46C44.3334 139.68 44.4634 138.987 44.7234 138.38C45.07 137.687 45.4167 137.037 45.7634 136.43L83.5934 85.21C84.72 83.7367 86.3234 83 88.4034 83H107.253C108.207 83 108.987 83.3033 109.593 83.91C110.287 84.5167 110.633 85.2967 110.633 86.25V136.69H122.073C123.113 136.69 123.937 137.037 124.543 137.73C125.15 138.337 125.453 139.073 125.453 139.94V152.81C125.453 153.763 125.107 154.543 124.413 155.15C123.807 155.757 123.07 156.06 122.203 156.06H110.633V170.75C110.633 171.703 110.287 172.483 109.593 173.09C108.987 173.697 108.207 174 107.253 174H91.2634ZM66.6934 137.6H88.5334V106.92L66.6934 137.6Z" fill="#A2CF20"/>
</svg>
