<svg width="170" height="260" viewBox="0 0 170 260" fill="none" xmlns="http://www.w3.org/2000/svg">
<rect width="170" height="260" rx="15" fill="white"/>
<rect x="10" y="12" width="150" height="236" rx="7" fill="#F3F2EE"/>
<path d="M143.935 33.22C142.682 33.22 141.635 33.0267 140.795 32.64C139.955 32.24 139.315 31.7267 138.875 31.1C138.448 30.46 138.222 29.7733 138.195 29.04C138.195 28.92 138.235 28.82 138.315 28.74C138.395 28.66 138.495 28.62 138.615 28.62H141.295C141.468 28.62 141.602 28.66 141.695 28.74C141.802 28.8067 141.882 28.8933 141.935 29C142.055 29.3067 142.208 29.56 142.395 29.76C142.595 29.96 142.822 30.1067 143.075 30.2C143.342 30.2933 143.635 30.34 143.955 30.34C144.328 30.34 144.675 30.26 144.995 30.1C145.315 29.94 145.568 29.7067 145.755 29.4C145.955 29.08 146.055 28.7 146.055 28.26C146.055 27.86 145.962 27.5133 145.775 27.22C145.602 26.9267 145.355 26.6933 145.035 26.52C144.715 26.3467 144.355 26.26 143.955 26.26C143.635 26.26 143.375 26.3 143.175 26.38C142.975 26.4467 142.808 26.5333 142.675 26.64C142.542 26.7467 142.422 26.84 142.315 26.92C142.208 26.9867 142.088 27.02 141.955 27.02H139.335C139.215 27.02 139.108 26.98 139.015 26.9C138.935 26.8067 138.895 26.7 138.895 26.58L139.615 19.6C139.642 19.4 139.715 19.2533 139.835 19.16C139.955 19.0533 140.102 19 140.275 19H148.295C148.442 19 148.562 19.0467 148.655 19.14C148.748 19.2333 148.795 19.3533 148.795 19.5V21.38C148.795 21.5267 148.748 21.6467 148.655 21.74C148.562 21.8333 148.442 21.88 148.295 21.88H142.495L142.235 24.48C142.528 24.28 142.868 24.12 143.255 24C143.655 23.8667 144.195 23.8 144.875 23.8C145.515 23.8 146.122 23.9067 146.695 24.12C147.282 24.3333 147.802 24.64 148.255 25.04C148.722 25.44 149.082 25.92 149.335 26.48C149.602 27.0267 149.735 27.6467 149.735 28.34C149.735 29.2867 149.502 30.1267 149.035 30.86C148.582 31.5933 147.922 32.1733 147.055 32.6C146.188 33.0133 145.148 33.22 143.935 33.22Z" fill="#5797E2"/>
<path d="M25.9352 33.22C24.6818 33.22 23.6352 33.0267 22.7952 32.64C21.9552 32.24 21.3152 31.7267 20.8752 31.1C20.4485 30.46 20.2218 29.7733 20.1952 29.04C20.1952 28.92 20.2352 28.82 20.3152 28.74C20.3952 28.66 20.4952 28.62 20.6152 28.62H23.2952C23.4685 28.62 23.6018 28.66 23.6952 28.74C23.8018 28.8067 23.8818 28.8933 23.9352 29C24.0552 29.3067 24.2085 29.56 24.3952 29.76C24.5952 29.96 24.8218 30.1067 25.0752 30.2C25.3418 30.2933 25.6352 30.34 25.9552 30.34C26.3285 30.34 26.6752 30.26 26.9952 30.1C27.3152 29.94 27.5685 29.7067 27.7552 29.4C27.9552 29.08 28.0552 28.7 28.0552 28.26C28.0552 27.86 27.9618 27.5133 27.7752 27.22C27.6018 26.9267 27.3552 26.6933 27.0352 26.52C26.7152 26.3467 26.3552 26.26 25.9552 26.26C25.6352 26.26 25.3752 26.3 25.1752 26.38C24.9752 26.4467 24.8085 26.5333 24.6752 26.64C24.5418 26.7467 24.4218 26.84 24.3152 26.92C24.2085 26.9867 24.0885 27.02 23.9552 27.02H21.3352C21.2152 27.02 21.1085 26.98 21.0152 26.9C20.9352 26.8067 20.8952 26.7 20.8952 26.58L21.6152 19.6C21.6418 19.4 21.7152 19.2533 21.8352 19.16C21.9552 19.0533 22.1018 19 22.2752 19H30.2952C30.4418 19 30.5618 19.0467 30.6552 19.14C30.7485 19.2333 30.7952 19.3533 30.7952 19.5V21.38C30.7952 21.5267 30.7485 21.6467 30.6552 21.74C30.5618 21.8333 30.4418 21.88 30.2952 21.88H24.4952L24.2352 24.48C24.5285 24.28 24.8685 24.12 25.2552 24C25.6552 23.8667 26.1952 23.8 26.8752 23.8C27.5152 23.8 28.1218 23.9067 28.6952 24.12C29.2818 24.3333 29.8018 24.64 30.2552 25.04C30.7218 25.44 31.0818 25.92 31.3352 26.48C31.6018 27.0267 31.7352 27.6467 31.7352 28.34C31.7352 29.2867 31.5018 30.1267 31.0352 30.86C30.5818 31.5933 29.9218 32.1733 29.0552 32.6C28.1885 33.0133 27.1485 33.22 25.9352 33.22Z" fill="#5797E2"/>
<path d="M143.935 239.22C142.682 239.22 141.635 239.027 140.795 238.64C139.955 238.24 139.315 237.727 138.875 237.1C138.448 236.46 138.222 235.773 138.195 235.04C138.195 234.92 138.235 234.82 138.315 234.74C138.395 234.66 138.495 234.62 138.615 234.62H141.295C141.468 234.62 141.602 234.66 141.695 234.74C141.802 234.807 141.882 234.893 141.935 235C142.055 235.307 142.208 235.56 142.395 235.76C142.595 235.96 142.822 236.107 143.075 236.2C143.342 236.293 143.635 236.34 143.955 236.34C144.328 236.34 144.675 236.26 144.995 236.1C145.315 235.94 145.568 235.707 145.755 235.4C145.955 235.08 146.055 234.7 146.055 234.26C146.055 233.86 145.962 233.513 145.775 233.22C145.602 232.927 145.355 232.693 145.035 232.52C144.715 232.347 144.355 232.26 143.955 232.26C143.635 232.26 143.375 232.3 143.175 232.38C142.975 232.447 142.808 232.533 142.675 232.64C142.542 232.747 142.422 232.84 142.315 232.92C142.208 232.987 142.088 233.02 141.955 233.02H139.335C139.215 233.02 139.108 232.98 139.015 232.9C138.935 232.807 138.895 232.7 138.895 232.58L139.615 225.6C139.642 225.4 139.715 225.253 139.835 225.16C139.955 225.053 140.102 225 140.275 225H148.295C148.442 225 148.562 225.047 148.655 225.14C148.748 225.233 148.795 225.353 148.795 225.5V227.38C148.795 227.527 148.748 227.647 148.655 227.74C148.562 227.833 148.442 227.88 148.295 227.88H142.495L142.235 230.48C142.528 230.28 142.868 230.12 143.255 230C143.655 229.867 144.195 229.8 144.875 229.8C145.515 229.8 146.122 229.907 146.695 230.12C147.282 230.333 147.802 230.64 148.255 231.04C148.722 231.44 149.082 231.92 149.335 232.48C149.602 233.027 149.735 233.647 149.735 234.34C149.735 235.287 149.502 236.127 149.035 236.86C148.582 237.593 147.922 238.173 147.055 238.6C146.188 239.013 145.148 239.22 143.935 239.22Z" fill="#5797E2"/>
<path d="M25.9352 239.22C24.6818 239.22 23.6352 239.027 22.7952 238.64C21.9552 238.24 21.3152 237.727 20.8752 237.1C20.4485 236.46 20.2218 235.773 20.1952 235.04C20.1952 234.92 20.2352 234.82 20.3152 234.74C20.3952 234.66 20.4952 234.62 20.6152 234.62H23.2952C23.4685 234.62 23.6018 234.66 23.6952 234.74C23.8018 234.807 23.8818 234.893 23.9352 235C24.0552 235.307 24.2085 235.56 24.3952 235.76C24.5952 235.96 24.8218 236.107 25.0752 236.2C25.3418 236.293 25.6352 236.34 25.9552 236.34C26.3285 236.34 26.6752 236.26 26.9952 236.1C27.3152 235.94 27.5685 235.707 27.7552 235.4C27.9552 235.08 28.0552 234.7 28.0552 234.26C28.0552 233.86 27.9618 233.513 27.7752 233.22C27.6018 232.927 27.3552 232.693 27.0352 232.52C26.7152 232.347 26.3552 232.26 25.9552 232.26C25.6352 232.26 25.3752 232.3 25.1752 232.38C24.9752 232.447 24.8085 232.533 24.6752 232.64C24.5418 232.747 24.4218 232.84 24.3152 232.92C24.2085 232.987 24.0885 233.02 23.9552 233.02H21.3352C21.2152 233.02 21.1085 232.98 21.0152 232.9C20.9352 232.807 20.8952 232.7 20.8952 232.58L21.6152 225.6C21.6418 225.4 21.7152 225.253 21.8352 225.16C21.9552 225.053 22.1018 225 22.2752 225H30.2952C30.4418 225 30.5618 225.047 30.6552 225.14C30.7485 225.233 30.7952 225.353 30.7952 225.5V227.38C30.7952 227.527 30.7485 227.647 30.6552 227.74C30.5618 227.833 30.4418 227.88 30.2952 227.88H24.4952L24.2352 230.48C24.5285 230.28 24.8685 230.12 25.2552 230C25.6552 229.867 26.1952 229.8 26.8752 229.8C27.5152 229.8 28.1218 229.907 28.6952 230.12C29.2818 230.333 29.8018 230.64 30.2552 231.04C30.7218 231.44 31.0818 231.92 31.3352 232.48C31.6018 233.027 31.7352 233.647 31.7352 234.34C31.7352 235.287 31.5018 236.127 31.0352 236.86C30.5818 237.593 29.9218 238.173 29.0552 238.6C28.1885 239.013 27.1485 239.22 25.9352 239.22Z" fill="#5797E2"/>
<path d="M84.5785 175.43C76.4319 175.43 69.6285 174.173 64.1685 171.66C58.7085 169.06 54.5485 165.723 51.6885 161.65C48.9152 157.49 47.4418 153.027 47.2685 148.26C47.2685 147.48 47.5285 146.83 48.0485 146.31C48.5685 145.79 49.2185 145.53 49.9985 145.53H67.4185C68.5452 145.53 69.4118 145.79 70.0185 146.31C70.7118 146.743 71.2319 147.307 71.5785 148C72.3585 149.993 73.3552 151.64 74.5685 152.94C75.8685 154.24 77.3419 155.193 78.9885 155.8C80.7219 156.407 82.6285 156.71 84.7085 156.71C87.1352 156.71 89.3885 156.19 91.4685 155.15C93.5485 154.11 95.1952 152.593 96.4085 150.6C97.7085 148.52 98.3585 146.05 98.3585 143.19C98.3585 140.59 97.7519 138.337 96.5385 136.43C95.4119 134.523 93.8085 133.007 91.7285 131.88C89.6485 130.753 87.3085 130.19 84.7085 130.19C82.6285 130.19 80.9385 130.45 79.6385 130.97C78.3385 131.403 77.2552 131.967 76.3885 132.66C75.5218 133.353 74.7419 133.96 74.0485 134.48C73.3552 134.913 72.5752 135.13 71.7085 135.13H54.6785C53.8985 135.13 53.2052 134.87 52.5985 134.35C52.0785 133.743 51.8185 133.05 51.8185 132.27L56.4985 86.9C56.6718 85.6 57.1485 84.6467 57.9285 84.04C58.7085 83.3467 59.6618 83 60.7885 83H112.919C113.872 83 114.652 83.3033 115.259 83.91C115.865 84.5167 116.169 85.2967 116.169 86.25V98.47C116.169 99.4233 115.865 100.203 115.259 100.81C114.652 101.417 113.872 101.72 112.919 101.72H75.2185L73.5285 118.62C75.4352 117.32 77.6452 116.28 80.1585 115.5C82.7585 114.633 86.2685 114.2 90.6885 114.2C94.8485 114.2 98.7919 114.893 102.519 116.28C106.332 117.667 109.712 119.66 112.659 122.26C115.692 124.86 118.032 127.98 119.679 131.62C121.412 135.173 122.279 139.203 122.279 143.71C122.279 149.863 120.762 155.323 117.729 160.09C114.782 164.857 110.492 168.627 104.859 171.4C99.2252 174.087 92.4652 175.43 84.5785 175.43Z" fill="#5797E2"/>
</svg>
