<svg width="170" height="260" viewBox="0 0 170 260" fill="none" xmlns="http://www.w3.org/2000/svg">
<rect width="170" height="260" rx="15" fill="white"/>
<rect x="10" y="12" width="150" height="236" rx="7" fill="#F3F2EE"/>
<path fill-rule="evenodd" clip-rule="evenodd" d="M84.5 74L102 104.312L122 74V113V122.5V184H48V122.5V113V74L67.4662 103.503L84.5 74ZM84.799 123L65 142.799L84.799 162.598L104.598 142.799L84.799 123Z" fill="#EBA216"/>
<path fill-rule="evenodd" clip-rule="evenodd" d="M22.9324 18L25.2973 22.0962L28 18V23.2703V24.5541V32.8649H18V24.5541V23.2703V18L20.6305 21.9869L22.9324 18ZM22.9728 24.6216L20.2973 27.2972L22.9728 29.9727L25.6483 27.2972L22.9728 24.6216Z" fill="#EBA216"/>
<path fill-rule="evenodd" clip-rule="evenodd" d="M146.932 18L149.297 22.0962L152 18V23.2703V24.5541V32.8649H142V24.5541V23.2703V18L144.631 21.9869L146.932 18ZM146.973 24.6216L144.297 27.2972L146.973 29.9727L149.648 27.2972L146.973 24.6216Z" fill="#EBA216"/>
<path fill-rule="evenodd" clip-rule="evenodd" d="M22.9324 226.77L25.2973 230.866L28 226.77V232.041V233.324V241.635H18V233.324V232.041V226.77L20.6305 230.757L22.9324 226.77ZM22.9728 233.392L20.2973 236.067L22.9728 238.743L25.6483 236.067L22.9728 233.392Z" fill="#EBA216"/>
<path fill-rule="evenodd" clip-rule="evenodd" d="M146.932 226.77L149.297 230.866L152 226.77V232.041V233.324V241.635H142V233.324V232.041V226.77L144.631 230.757L146.932 226.77ZM146.973 233.392L144.297 236.067L146.973 238.743L149.648 236.067L146.973 233.392Z" fill="#EBA216"/>
</svg>
