<svg width="170" height="260" viewBox="0 0 170 260" fill="none" xmlns="http://www.w3.org/2000/svg">
<rect width="170" height="260" rx="15" fill="white"/>
<rect x="10" y="12" width="150" height="236" rx="7" fill="#F3F2EE"/>
<rect x="30" y="111" width="102" height="15" fill="#E02323"/>
<path d="M121.444 93L141 126H121.444L101 93H121.444Z" fill="#E02323"/>
<rect x="141" y="148" width="102" height="15" transform="rotate(-180 141 148)" fill="#E02323"/>
<path d="M49.5556 166L30 133L49.5556 133L70 166L49.5556 166Z" fill="#E02323"/>
<rect x="17" y="22.9589" width="16.7671" height="2.46575" fill="#E02323"/>
<path d="M32.0321 20L35.2467 25.4247H32.0321L28.6714 20H32.0321Z" fill="#E02323"/>
<rect x="35.2468" y="29.0411" width="16.7671" height="2.46575" transform="rotate(-180 35.2468 29.0411)" fill="#E02323"/>
<path d="M20.2147 32L17.0001 26.5753L20.2147 26.5753L23.5754 32L20.2147 32Z" fill="#E02323"/>
<rect x="135.719" y="22.9589" width="16.7671" height="2.46575" fill="#E02323"/>
<path d="M150.751 20L153.966 25.4247H150.751L147.391 20H150.751Z" fill="#E02323"/>
<rect x="153.966" y="29.0411" width="16.7671" height="2.46575" transform="rotate(-180 153.966 29.0411)" fill="#E02323"/>
<path d="M138.934 32L135.719 26.5753L138.934 26.5753L142.295 32L138.934 32Z" fill="#E02323"/>
<rect x="17" y="229.959" width="16.7671" height="2.46575" fill="#E02323"/>
<path d="M32.0321 227L35.2467 232.425H32.0321L28.6714 227H32.0321Z" fill="#E02323"/>
<rect x="35.2468" y="236.041" width="16.7671" height="2.46575" transform="rotate(-180 35.2468 236.041)" fill="#E02323"/>
<path d="M20.2147 239L17.0001 233.575L20.2147 233.575L23.5754 239L20.2147 239Z" fill="#E02323"/>
<rect x="135.719" y="229.959" width="16.7671" height="2.46575" fill="#E02323"/>
<path d="M150.751 227L153.966 232.425H150.751L147.391 227H150.751Z" fill="#E02323"/>
<rect x="153.966" y="236.041" width="16.7671" height="2.46575" transform="rotate(-180 153.966 236.041)" fill="#E02323"/>
<path d="M138.934 239L135.719 233.575L138.934 233.575L142.295 239L138.934 239Z" fill="#E02323"/>
</svg>
