<svg width="170" height="260" viewBox="0 0 170 260" fill="none" xmlns="http://www.w3.org/2000/svg">
<rect width="170" height="260" rx="15" fill="white"/>
<rect x="10" y="12" width="150" height="236" rx="7" fill="#F3F2EE"/>
<path fill-rule="evenodd" clip-rule="evenodd" d="M26 17C25.3373 17 24.8 17.5373 24.8 18.2V19.8941C24.8 19.2314 24.2627 18.6941 23.6 18.6941C22.9373 18.6941 22.4 19.2314 22.4 19.8941V24.4118C22.4 23.749 21.8627 23.2118 21.2 23.2118C20.5373 23.2118 20 23.749 20 24.4118V28.7176H22.4H24.8H27.2H29.6L32 28.7176V20.8824C32 20.2196 31.4627 19.6824 30.8 19.6824C30.1373 19.6824 29.6 20.2196 29.6 20.8824V19.6118C29.6 18.949 29.0627 18.4118 28.4 18.4118C27.7376 18.4118 27.2006 18.9484 27.2 19.6107V18.2C27.2 17.5373 26.6627 17 26 17Z" fill="#A2CF20"/>
<path fill-rule="evenodd" clip-rule="evenodd" d="M20.0089 29.0131L31.9911 29.0131C31.997 29.1222 32 29.2321 32 29.3427C32 32.6564 29.3137 35.3427 26 35.3427C22.6863 35.3427 20 32.6564 20 29.3427C20 29.2321 20.003 29.1222 20.0089 29.0131Z" fill="#A2CF20"/>
<path fill-rule="evenodd" clip-rule="evenodd" d="M144 17C143.337 17 142.8 17.5373 142.8 18.2V19.8941C142.8 19.2314 142.263 18.6941 141.6 18.6941C140.937 18.6941 140.4 19.2314 140.4 19.8941V24.4118C140.4 23.749 139.863 23.2118 139.2 23.2118C138.537 23.2118 138 23.749 138 24.4118V28.7176H140.4H142.8H145.2H147.6L150 28.7176V20.8824C150 20.2196 149.463 19.6824 148.8 19.6824C148.137 19.6824 147.6 20.2196 147.6 20.8824V19.6118C147.6 18.949 147.063 18.4118 146.4 18.4118C145.738 18.4118 145.201 18.9484 145.2 19.6107V18.2C145.2 17.5373 144.663 17 144 17Z" fill="#A2CF20"/>
<path fill-rule="evenodd" clip-rule="evenodd" d="M138.009 29.0131L149.991 29.0131C149.997 29.1222 150 29.2321 150 29.3427C150 32.6564 147.314 35.3427 144 35.3427C140.686 35.3427 138 32.6564 138 29.3427C138 29.2321 138.003 29.1222 138.009 29.0131Z" fill="#A2CF20"/>
<path fill-rule="evenodd" clip-rule="evenodd" d="M26 223C25.3373 223 24.8 223.537 24.8 224.2V225.894C24.8 225.231 24.2627 224.694 23.6 224.694C22.9373 224.694 22.4 225.231 22.4 225.894V230.412C22.4 229.749 21.8627 229.212 21.2 229.212C20.5373 229.212 20 229.749 20 230.412V234.718H22.4H24.8H27.2H29.6L32 234.718V226.882C32 226.22 31.4627 225.682 30.8 225.682C30.1373 225.682 29.6 226.22 29.6 226.882V225.612C29.6 224.949 29.0627 224.412 28.4 224.412C27.7376 224.412 27.2006 224.948 27.2 225.611V224.2C27.2 223.537 26.6627 223 26 223Z" fill="#A2CF20"/>
<path fill-rule="evenodd" clip-rule="evenodd" d="M20.0089 235.013L31.9911 235.013C31.997 235.122 32 235.232 32 235.343C32 238.656 29.3137 241.343 26 241.343C22.6863 241.343 20 238.656 20 235.343C20 235.232 20.003 235.122 20.0089 235.013Z" fill="#A2CF20"/>
<path fill-rule="evenodd" clip-rule="evenodd" d="M144 223C143.337 223 142.8 223.537 142.8 224.2V225.894C142.8 225.231 142.263 224.694 141.6 224.694C140.937 224.694 140.4 225.231 140.4 225.894V230.412C140.4 229.749 139.863 229.212 139.2 229.212C138.537 229.212 138 229.749 138 230.412V234.718H140.4H142.8H145.2H147.6L150 234.718V226.882C150 226.22 149.463 225.682 148.8 225.682C148.137 225.682 147.6 226.22 147.6 226.882V225.612C147.6 224.949 147.063 224.412 146.4 224.412C145.738 224.412 145.201 224.948 145.2 225.611V224.2C145.2 223.537 144.663 223 144 223Z" fill="#A2CF20"/>
<path fill-rule="evenodd" clip-rule="evenodd" d="M138.009 235.013L149.991 235.013C149.997 235.122 150 235.232 150 235.343C150 238.656 147.314 241.343 144 241.343C140.686 241.343 138 238.656 138 235.343C138 235.232 138.003 235.122 138.009 235.013Z" fill="#A2CF20"/>
<path fill-rule="evenodd" clip-rule="evenodd" d="M84.5 65C79.8056 65 76 68.8056 76 73.5V85.5C76 80.8056 72.1944 77 67.5 77C62.8056 77 59 80.8056 59 85.5V117.5C59 112.806 55.1944 109 50.5 109C45.8056 109 42 112.806 42 117.5V148H59H76H93H110H127V92.5C127 87.8056 123.194 84 118.5 84C113.806 84 110 87.8056 110 92.5V83.5C110 78.8056 106.194 75 101.5 75C96.8056 75 93 78.8056 93 83.5V73.5C93 68.8056 89.1944 65 84.5 65Z" fill="#A2CF20"/>
<path fill-rule="evenodd" clip-rule="evenodd" d="M42.0631 150.092L126.937 150.092C126.979 150.866 127 151.644 127 152.428C127 175.9 107.972 194.928 84.5 194.928C61.0279 194.928 42 175.9 42 152.428C42 151.644 42.0212 150.866 42.0631 150.092Z" fill="#A2CF20"/>
</svg>
