<svg width="170" height="260" viewBox="0 0 170 260" fill="none" xmlns="http://www.w3.org/2000/svg">
<rect width="170" height="260" rx="15" fill="white"/>
<rect x="10" y="12" width="150" height="236" rx="7" fill="#F3F2EE"/>
<path d="M140.118 26C140.045 26 139.985 25.9767 139.938 25.93C139.891 25.8833 139.868 25.8233 139.868 25.75V20.57H138.088C138.015 20.57 137.955 20.5467 137.908 20.5C137.861 20.4467 137.838 20.3867 137.838 20.32V19.25C137.838 19.1767 137.861 19.1167 137.908 19.07C137.955 19.0233 138.015 19 138.088 19H143.468C143.541 19 143.601 19.0233 143.648 19.07C143.695 19.1167 143.718 19.1767 143.718 19.25V20.32C143.718 20.3867 143.695 20.4467 143.648 20.5C143.601 20.5467 143.541 20.57 143.468 20.57H141.688V25.75C141.688 25.8233 141.665 25.8833 141.618 25.93C141.571 25.9767 141.511 26 141.438 26H140.118ZM143.514 26C143.461 26 143.411 25.98 143.364 25.94C143.324 25.8933 143.304 25.8433 143.304 25.79C143.304 25.7567 143.307 25.7267 143.314 25.7L145.664 19.28C145.684 19.2067 145.724 19.1433 145.784 19.09C145.851 19.03 145.941 19 146.054 19H147.534C147.647 19 147.734 19.03 147.794 19.09C147.861 19.1433 147.904 19.2067 147.924 19.28L150.264 25.7C150.277 25.7267 150.284 25.7567 150.284 25.79C150.284 25.8433 150.261 25.8933 150.214 25.94C150.174 25.98 150.124 26 150.064 26H148.834C148.734 26 148.657 25.9767 148.604 25.93C148.557 25.8767 148.527 25.83 148.514 25.79L148.124 24.77H145.454L145.074 25.79C145.061 25.83 145.031 25.8767 144.984 25.93C144.937 25.9767 144.857 26 144.744 26H143.514ZM145.864 23.33H147.724L146.784 20.69L145.864 23.33ZM140.018 34C139.945 34 139.885 33.9767 139.838 33.93C139.792 33.8833 139.768 33.8233 139.768 33.75V27.25C139.768 27.1767 139.792 27.1167 139.838 27.07C139.885 27.0233 139.945 27 140.018 27H141.278C141.352 27 141.412 27.0233 141.458 27.07C141.505 27.1167 141.528 27.1767 141.528 27.25V29.47L143.378 27.19C143.405 27.15 143.448 27.11 143.508 27.07C143.575 27.0233 143.662 27 143.768 27H145.208C145.268 27 145.318 27.0233 145.358 27.07C145.398 27.11 145.418 27.1567 145.418 27.21C145.418 27.2567 145.405 27.2967 145.378 27.33L142.988 30.35L145.568 33.67C145.595 33.6967 145.608 33.7367 145.608 33.79C145.608 33.8433 145.585 33.8933 145.538 33.94C145.498 33.98 145.452 34 145.398 34H143.908C143.788 34 143.695 33.9733 143.628 33.92C143.568 33.8667 143.528 33.8267 143.508 33.8L141.528 31.33V33.75C141.528 33.8233 141.505 33.8833 141.458 33.93C141.412 33.9767 141.352 34 141.278 34H140.018ZM146.639 34C146.566 34 146.506 33.9767 146.459 33.93C146.413 33.8833 146.389 33.8233 146.389 33.75V27.25C146.389 27.1767 146.413 27.1167 146.459 27.07C146.506 27.0233 146.566 27 146.639 27H147.979C148.053 27 148.113 27.0233 148.159 27.07C148.206 27.1167 148.229 27.1767 148.229 27.25V33.75C148.229 33.8233 148.206 33.8833 148.159 33.93C148.113 33.9767 148.053 34 147.979 34H146.639Z" fill="#E02323"/>
<path d="M22.1179 26C22.0446 26 21.9846 25.9767 21.9379 25.93C21.8913 25.8833 21.8679 25.8233 21.8679 25.75V20.57H20.0879C20.0146 20.57 19.9546 20.5467 19.9079 20.5C19.8613 20.4467 19.8379 20.3867 19.8379 20.32V19.25C19.8379 19.1767 19.8613 19.1167 19.9079 19.07C19.9546 19.0233 20.0146 19 20.0879 19H25.4679C25.5413 19 25.6013 19.0233 25.6479 19.07C25.6946 19.1167 25.7179 19.1767 25.7179 19.25V20.32C25.7179 20.3867 25.6946 20.4467 25.6479 20.5C25.6013 20.5467 25.5413 20.57 25.4679 20.57H23.6879V25.75C23.6879 25.8233 23.6646 25.8833 23.6179 25.93C23.5713 25.9767 23.5113 26 23.4379 26H22.1179ZM25.5139 26C25.4605 26 25.4105 25.98 25.3639 25.94C25.3239 25.8933 25.3039 25.8433 25.3039 25.79C25.3039 25.7567 25.3072 25.7267 25.3139 25.7L27.6639 19.28C27.6839 19.2067 27.7239 19.1433 27.7839 19.09C27.8505 19.03 27.9405 19 28.0539 19H29.5339C29.6472 19 29.7339 19.03 29.7939 19.09C29.8605 19.1433 29.9039 19.2067 29.9239 19.28L32.2639 25.7C32.2772 25.7267 32.2839 25.7567 32.2839 25.79C32.2839 25.8433 32.2605 25.8933 32.2139 25.94C32.1739 25.98 32.1239 26 32.0639 26H30.8339C30.7339 26 30.6572 25.9767 30.6039 25.93C30.5572 25.8767 30.5272 25.83 30.5139 25.79L30.1239 24.77H27.4539L27.0739 25.79C27.0605 25.83 27.0305 25.8767 26.9839 25.93C26.9372 25.9767 26.8572 26 26.7439 26H25.5139ZM27.8639 23.33H29.7239L28.7839 20.69L27.8639 23.33ZM22.0184 34C21.945 34 21.885 33.9767 21.8384 33.93C21.7917 33.8833 21.7684 33.8233 21.7684 33.75V27.25C21.7684 27.1767 21.7917 27.1167 21.8384 27.07C21.885 27.0233 21.945 27 22.0184 27H23.2784C23.3517 27 23.4117 27.0233 23.4584 27.07C23.505 27.1167 23.5284 27.1767 23.5284 27.25V29.47L25.3784 27.19C25.405 27.15 25.4484 27.11 25.5084 27.07C25.575 27.0233 25.6617 27 25.7684 27H27.2084C27.2684 27 27.3184 27.0233 27.3584 27.07C27.3984 27.11 27.4184 27.1567 27.4184 27.21C27.4184 27.2567 27.405 27.2967 27.3784 27.33L24.9884 30.35L27.5684 33.67C27.595 33.6967 27.6084 33.7367 27.6084 33.79C27.6084 33.8433 27.585 33.8933 27.5384 33.94C27.4984 33.98 27.4517 34 27.3984 34H25.9084C25.7884 34 25.695 33.9733 25.6284 33.92C25.5684 33.8667 25.5284 33.8267 25.5084 33.8L23.5284 31.33V33.75C23.5284 33.8233 23.505 33.8833 23.4584 33.93C23.4117 33.9767 23.3517 34 23.2784 34H22.0184ZM28.6395 34C28.5661 34 28.5061 33.9767 28.4595 33.93C28.4128 33.8833 28.3895 33.8233 28.3895 33.75V27.25C28.3895 27.1767 28.4128 27.1167 28.4595 27.07C28.5061 27.0233 28.5661 27 28.6395 27H29.9795C30.0528 27 30.1128 27.0233 30.1595 27.07C30.2061 27.1167 30.2295 27.1767 30.2295 27.25V33.75C30.2295 33.8233 30.2061 33.8833 30.1595 33.93C30.1128 33.9767 30.0528 34 29.9795 34H28.6395Z" fill="#E02323"/>
<path d="M140.118 232C140.045 232 139.985 231.977 139.938 231.93C139.891 231.883 139.868 231.823 139.868 231.75V226.57H138.088C138.015 226.57 137.955 226.547 137.908 226.5C137.861 226.447 137.838 226.387 137.838 226.32V225.25C137.838 225.177 137.861 225.117 137.908 225.07C137.955 225.023 138.015 225 138.088 225H143.468C143.541 225 143.601 225.023 143.648 225.07C143.695 225.117 143.718 225.177 143.718 225.25V226.32C143.718 226.387 143.695 226.447 143.648 226.5C143.601 226.547 143.541 226.57 143.468 226.57H141.688V231.75C141.688 231.823 141.665 231.883 141.618 231.93C141.571 231.977 141.511 232 141.438 232H140.118ZM143.514 232C143.461 232 143.411 231.98 143.364 231.94C143.324 231.893 143.304 231.843 143.304 231.79C143.304 231.757 143.307 231.727 143.314 231.7L145.664 225.28C145.684 225.207 145.724 225.143 145.784 225.09C145.851 225.03 145.941 225 146.054 225H147.534C147.647 225 147.734 225.03 147.794 225.09C147.861 225.143 147.904 225.207 147.924 225.28L150.264 231.7C150.277 231.727 150.284 231.757 150.284 231.79C150.284 231.843 150.261 231.893 150.214 231.94C150.174 231.98 150.124 232 150.064 232H148.834C148.734 232 148.657 231.977 148.604 231.93C148.557 231.877 148.527 231.83 148.514 231.79L148.124 230.77H145.454L145.074 231.79C145.061 231.83 145.031 231.877 144.984 231.93C144.937 231.977 144.857 232 144.744 232H143.514ZM145.864 229.33H147.724L146.784 226.69L145.864 229.33ZM140.018 240C139.945 240 139.885 239.977 139.838 239.93C139.792 239.883 139.768 239.823 139.768 239.75V233.25C139.768 233.177 139.792 233.117 139.838 233.07C139.885 233.023 139.945 233 140.018 233H141.278C141.352 233 141.412 233.023 141.458 233.07C141.505 233.117 141.528 233.177 141.528 233.25V235.47L143.378 233.19C143.405 233.15 143.448 233.11 143.508 233.07C143.575 233.023 143.662 233 143.768 233H145.208C145.268 233 145.318 233.023 145.358 233.07C145.398 233.11 145.418 233.157 145.418 233.21C145.418 233.257 145.405 233.297 145.378 233.33L142.988 236.35L145.568 239.67C145.595 239.697 145.608 239.737 145.608 239.79C145.608 239.843 145.585 239.893 145.538 239.94C145.498 239.98 145.452 240 145.398 240H143.908C143.788 240 143.695 239.973 143.628 239.92C143.568 239.867 143.528 239.827 143.508 239.8L141.528 237.33V239.75C141.528 239.823 141.505 239.883 141.458 239.93C141.412 239.977 141.352 240 141.278 240H140.018ZM146.639 240C146.566 240 146.506 239.977 146.459 239.93C146.413 239.883 146.389 239.823 146.389 239.75V233.25C146.389 233.177 146.413 233.117 146.459 233.07C146.506 233.023 146.566 233 146.639 233H147.979C148.053 233 148.113 233.023 148.159 233.07C148.206 233.117 148.229 233.177 148.229 233.25V239.75C148.229 239.823 148.206 239.883 148.159 239.93C148.113 239.977 148.053 240 147.979 240H146.639Z" fill="#E02323"/>
<path d="M22.1179 232C22.0446 232 21.9846 231.977 21.9379 231.93C21.8913 231.883 21.8679 231.823 21.8679 231.75V226.57H20.0879C20.0146 226.57 19.9546 226.547 19.9079 226.5C19.8613 226.447 19.8379 226.387 19.8379 226.32V225.25C19.8379 225.177 19.8613 225.117 19.9079 225.07C19.9546 225.023 20.0146 225 20.0879 225H25.4679C25.5413 225 25.6013 225.023 25.6479 225.07C25.6946 225.117 25.7179 225.177 25.7179 225.25V226.32C25.7179 226.387 25.6946 226.447 25.6479 226.5C25.6013 226.547 25.5413 226.57 25.4679 226.57H23.6879V231.75C23.6879 231.823 23.6646 231.883 23.6179 231.93C23.5713 231.977 23.5113 232 23.4379 232H22.1179ZM25.5139 232C25.4605 232 25.4105 231.98 25.3639 231.94C25.3239 231.893 25.3039 231.843 25.3039 231.79C25.3039 231.757 25.3072 231.727 25.3139 231.7L27.6639 225.28C27.6839 225.207 27.7239 225.143 27.7839 225.09C27.8505 225.03 27.9405 225 28.0539 225H29.5339C29.6472 225 29.7339 225.03 29.7939 225.09C29.8605 225.143 29.9039 225.207 29.9239 225.28L32.2639 231.7C32.2772 231.727 32.2839 231.757 32.2839 231.79C32.2839 231.843 32.2605 231.893 32.2139 231.94C32.1739 231.98 32.1239 232 32.0639 232H30.8339C30.7339 232 30.6572 231.977 30.6039 231.93C30.5572 231.877 30.5272 231.83 30.5139 231.79L30.1239 230.77H27.4539L27.0739 231.79C27.0605 231.83 27.0305 231.877 26.9839 231.93C26.9372 231.977 26.8572 232 26.7439 232H25.5139ZM27.8639 229.33H29.7239L28.7839 226.69L27.8639 229.33ZM22.0184 240C21.945 240 21.885 239.977 21.8384 239.93C21.7917 239.883 21.7684 239.823 21.7684 239.75V233.25C21.7684 233.177 21.7917 233.117 21.8384 233.07C21.885 233.023 21.945 233 22.0184 233H23.2784C23.3517 233 23.4117 233.023 23.4584 233.07C23.505 233.117 23.5284 233.177 23.5284 233.25V235.47L25.3784 233.19C25.405 233.15 25.4484 233.11 25.5084 233.07C25.575 233.023 25.6617 233 25.7684 233H27.2084C27.2684 233 27.3184 233.023 27.3584 233.07C27.3984 233.11 27.4184 233.157 27.4184 233.21C27.4184 233.257 27.405 233.297 27.3784 233.33L24.9884 236.35L27.5684 239.67C27.595 239.697 27.6084 239.737 27.6084 239.79C27.6084 239.843 27.585 239.893 27.5384 239.94C27.4984 239.98 27.4517 240 27.3984 240H25.9084C25.7884 240 25.695 239.973 25.6284 239.92C25.5684 239.867 25.5284 239.827 25.5084 239.8L23.5284 237.33V239.75C23.5284 239.823 23.505 239.883 23.4584 239.93C23.4117 239.977 23.3517 240 23.2784 240H22.0184ZM28.6395 240C28.5661 240 28.5061 239.977 28.4595 239.93C28.4128 239.883 28.3895 239.823 28.3895 239.75V233.25C28.3895 233.177 28.4128 233.117 28.4595 233.07C28.5061 233.023 28.5661 233 28.6395 233H29.9795C30.0528 233 30.1128 233.023 30.1595 233.07C30.2061 233.117 30.2295 233.177 30.2295 233.25V239.75C30.2295 239.823 30.2061 239.883 30.1595 239.93C30.1128 239.977 30.0528 240 29.9795 240H28.6395Z" fill="#E02323"/>
<path d="M57.8255 125C57.3122 125 56.8922 124.837 56.5655 124.51C56.2388 124.183 56.0755 123.763 56.0755 123.25V86.99H43.6155C43.1022 86.99 42.6822 86.8267 42.3555 86.5C42.0288 86.1267 41.8655 85.7067 41.8655 85.24V77.75C41.8655 77.2367 42.0288 76.8167 42.3555 76.49C42.6822 76.1633 43.1022 76 43.6155 76H81.2755C81.7888 76 82.2088 76.1633 82.5355 76.49C82.8622 76.8167 83.0255 77.2367 83.0255 77.75V85.24C83.0255 85.7067 82.8622 86.1267 82.5355 86.5C82.2088 86.8267 81.7888 86.99 81.2755 86.99H68.8155V123.25C68.8155 123.763 68.6522 124.183 68.3255 124.51C67.9988 124.837 67.5788 125 67.0655 125H57.8255ZM81.5971 125C81.2237 125 80.8737 124.86 80.5471 124.58C80.2671 124.253 80.1271 123.903 80.1271 123.53C80.1271 123.297 80.1504 123.087 80.1971 122.9L96.6471 77.96C96.7871 77.4467 97.0671 77.0033 97.4871 76.63C97.9537 76.21 98.5837 76 99.3771 76H109.737C110.53 76 111.137 76.21 111.557 76.63C112.024 77.0033 112.327 77.4467 112.467 77.96L128.847 122.9C128.94 123.087 128.987 123.297 128.987 123.53C128.987 123.903 128.824 124.253 128.497 124.58C128.217 124.86 127.867 125 127.447 125H118.837C118.137 125 117.6 124.837 117.227 124.51C116.9 124.137 116.69 123.81 116.597 123.53L113.867 116.39H95.1771L92.5171 123.53C92.4237 123.81 92.2137 124.137 91.8871 124.51C91.5604 124.837 91.0004 125 90.2071 125H81.5971ZM98.0471 106.31H111.067L104.487 87.83L98.0471 106.31ZM57.1285 182C56.6152 182 56.1952 181.837 55.8685 181.51C55.5418 181.183 55.3785 180.763 55.3785 180.25V134.75C55.3785 134.237 55.5418 133.817 55.8685 133.49C56.1952 133.163 56.6152 133 57.1285 133H65.9485C66.4618 133 66.8818 133.163 67.2085 133.49C67.5352 133.817 67.6985 134.237 67.6985 134.75V150.29L80.6485 134.33C80.8352 134.05 81.1385 133.77 81.5585 133.49C82.0252 133.163 82.6319 133 83.3785 133H93.4585C93.8785 133 94.2285 133.163 94.5085 133.49C94.7885 133.77 94.9285 134.097 94.9285 134.47C94.9285 134.797 94.8352 135.077 94.6485 135.31L77.9185 156.45L95.9785 179.69C96.1652 179.877 96.2585 180.157 96.2585 180.53C96.2585 180.903 96.0952 181.253 95.7685 181.58C95.4885 181.86 95.1619 182 94.7885 182H84.3585C83.5185 182 82.8652 181.813 82.3985 181.44C81.9785 181.067 81.6985 180.787 81.5585 180.6L67.6985 163.31V180.25C67.6985 180.763 67.5352 181.183 67.2085 181.51C66.8818 181.837 66.4618 182 65.9485 182H57.1285ZM103.476 182C102.963 182 102.543 181.837 102.216 181.51C101.89 181.183 101.726 180.763 101.726 180.25V134.75C101.726 134.237 101.89 133.817 102.216 133.49C102.543 133.163 102.963 133 103.476 133H112.856C113.37 133 113.79 133.163 114.116 133.49C114.443 133.817 114.606 134.237 114.606 134.75V180.25C114.606 180.763 114.443 181.183 114.116 181.51C113.79 181.837 113.37 182 112.856 182H103.476Z" fill="#E02323"/>
</svg>
